<mxfile host="app.diagrams.net" modified="2024-07-07T07:18:48.061Z" agent="Mozilla/5.0 (Macintosh; Intel Mac OS X 10_15_7) AppleWebKit/537.36 (KHTML, like Gecko) Chrome/120.0.0.0 Whale/3.24.223.18 Safari/537.36" etag="doQvrOA6oLvy-Z01XYlm" version="24.6.4" type="github">
  <diagram name="페이지-1" id="q4a4fRpmrBBrFd70YqiL">
    <mxGraphModel dx="582" dy="1108" grid="1" gridSize="10" guides="1" tooltips="1" connect="1" arrows="1" fold="1" page="1" pageScale="1" pageWidth="1169" pageHeight="827" math="0" shadow="0">
      <root>
        <mxCell id="0" />
        <mxCell id="1" parent="0" />
        <mxCell id="LJNIjv_O-m_A1Em3gIbu-1" value="" style="endArrow=classic;html=1;rounded=0;endFill=1;strokeWidth=3;" parent="1" edge="1">
          <mxGeometry width="50" height="50" relative="1" as="geometry">
            <mxPoint x="80" y="280" as="sourcePoint" />
            <mxPoint x="580" y="280" as="targetPoint" />
          </mxGeometry>
        </mxCell>
        <mxCell id="LJNIjv_O-m_A1Em3gIbu-3" value="&lt;b&gt;VIEW&lt;/b&gt;" style="text;html=1;align=center;verticalAlign=middle;whiteSpace=wrap;rounded=0;" parent="1" vertex="1">
          <mxGeometry x="20" y="280" width="60" height="30" as="geometry" />
        </mxCell>
        <mxCell id="LJNIjv_O-m_A1Em3gIbu-4" value="&lt;b&gt;CLICK&lt;/b&gt;" style="text;html=1;align=center;verticalAlign=middle;whiteSpace=wrap;rounded=0;" parent="1" vertex="1">
          <mxGeometry x="20" y="590" width="60" height="30" as="geometry" />
        </mxCell>
        <mxCell id="LJNIjv_O-m_A1Em3gIbu-12" value="1" style="text;html=1;align=center;verticalAlign=middle;whiteSpace=wrap;rounded=0;" parent="1" vertex="1">
          <mxGeometry x="110" y="280" width="20" height="30" as="geometry" />
        </mxCell>
        <mxCell id="LJNIjv_O-m_A1Em3gIbu-13" value="0" style="text;html=1;align=center;verticalAlign=middle;whiteSpace=wrap;rounded=0;" parent="1" vertex="1">
          <mxGeometry x="70" y="280" width="20" height="30" as="geometry" />
        </mxCell>
        <mxCell id="LJNIjv_O-m_A1Em3gIbu-14" value="2" style="text;html=1;align=center;verticalAlign=middle;whiteSpace=wrap;rounded=0;" parent="1" vertex="1">
          <mxGeometry x="150" y="280" width="20" height="30" as="geometry" />
        </mxCell>
        <mxCell id="LJNIjv_O-m_A1Em3gIbu-15" value="3" style="text;html=1;align=center;verticalAlign=middle;whiteSpace=wrap;rounded=0;" parent="1" vertex="1">
          <mxGeometry x="190" y="280" width="20" height="30" as="geometry" />
        </mxCell>
        <mxCell id="LJNIjv_O-m_A1Em3gIbu-16" value="4" style="text;html=1;align=center;verticalAlign=middle;whiteSpace=wrap;rounded=0;" parent="1" vertex="1">
          <mxGeometry x="230" y="280" width="20" height="30" as="geometry" />
        </mxCell>
        <mxCell id="LJNIjv_O-m_A1Em3gIbu-17" value="5" style="text;html=1;align=center;verticalAlign=middle;whiteSpace=wrap;rounded=0;" parent="1" vertex="1">
          <mxGeometry x="270" y="280" width="20" height="30" as="geometry" />
        </mxCell>
        <mxCell id="LJNIjv_O-m_A1Em3gIbu-18" value="6" style="text;html=1;align=center;verticalAlign=middle;whiteSpace=wrap;rounded=0;" parent="1" vertex="1">
          <mxGeometry x="310" y="280" width="20" height="30" as="geometry" />
        </mxCell>
        <mxCell id="LJNIjv_O-m_A1Em3gIbu-19" value="7" style="text;html=1;align=center;verticalAlign=middle;whiteSpace=wrap;rounded=0;" parent="1" vertex="1">
          <mxGeometry x="350" y="280" width="20" height="30" as="geometry" />
        </mxCell>
        <mxCell id="LJNIjv_O-m_A1Em3gIbu-20" value="8" style="text;html=1;align=center;verticalAlign=middle;whiteSpace=wrap;rounded=0;" parent="1" vertex="1">
          <mxGeometry x="390" y="280" width="20" height="30" as="geometry" />
        </mxCell>
        <mxCell id="LJNIjv_O-m_A1Em3gIbu-21" value="9" style="text;html=1;align=center;verticalAlign=middle;whiteSpace=wrap;rounded=0;" parent="1" vertex="1">
          <mxGeometry x="430" y="280" width="20" height="30" as="geometry" />
        </mxCell>
        <mxCell id="LJNIjv_O-m_A1Em3gIbu-22" value="10" style="text;html=1;align=center;verticalAlign=middle;whiteSpace=wrap;rounded=0;" parent="1" vertex="1">
          <mxGeometry x="470" y="280" width="20" height="30" as="geometry" />
        </mxCell>
        <mxCell id="LJNIjv_O-m_A1Em3gIbu-23" value="11" style="text;html=1;align=center;verticalAlign=middle;whiteSpace=wrap;rounded=0;" parent="1" vertex="1">
          <mxGeometry x="510" y="280" width="20" height="30" as="geometry" />
        </mxCell>
        <mxCell id="LJNIjv_O-m_A1Em3gIbu-24" value="12" style="text;html=1;align=center;verticalAlign=middle;whiteSpace=wrap;rounded=0;" parent="1" vertex="1">
          <mxGeometry x="550" y="280" width="20" height="30" as="geometry" />
        </mxCell>
        <mxCell id="LJNIjv_O-m_A1Em3gIbu-26" value="" style="endArrow=classic;html=1;rounded=0;endFill=1;strokeWidth=3;" parent="1" edge="1">
          <mxGeometry width="50" height="50" relative="1" as="geometry">
            <mxPoint x="80" y="590" as="sourcePoint" />
            <mxPoint x="580" y="590" as="targetPoint" />
          </mxGeometry>
        </mxCell>
        <mxCell id="LJNIjv_O-m_A1Em3gIbu-27" value="1" style="text;html=1;align=center;verticalAlign=middle;whiteSpace=wrap;rounded=0;" parent="1" vertex="1">
          <mxGeometry x="110" y="590" width="20" height="30" as="geometry" />
        </mxCell>
        <mxCell id="LJNIjv_O-m_A1Em3gIbu-28" value="0" style="text;html=1;align=center;verticalAlign=middle;whiteSpace=wrap;rounded=0;" parent="1" vertex="1">
          <mxGeometry x="70" y="590" width="20" height="30" as="geometry" />
        </mxCell>
        <mxCell id="LJNIjv_O-m_A1Em3gIbu-29" value="2" style="text;html=1;align=center;verticalAlign=middle;whiteSpace=wrap;rounded=0;" parent="1" vertex="1">
          <mxGeometry x="150" y="590" width="20" height="30" as="geometry" />
        </mxCell>
        <mxCell id="LJNIjv_O-m_A1Em3gIbu-30" value="3" style="text;html=1;align=center;verticalAlign=middle;whiteSpace=wrap;rounded=0;" parent="1" vertex="1">
          <mxGeometry x="190" y="590" width="20" height="30" as="geometry" />
        </mxCell>
        <mxCell id="LJNIjv_O-m_A1Em3gIbu-31" value="4" style="text;html=1;align=center;verticalAlign=middle;whiteSpace=wrap;rounded=0;" parent="1" vertex="1">
          <mxGeometry x="230" y="590" width="20" height="30" as="geometry" />
        </mxCell>
        <mxCell id="LJNIjv_O-m_A1Em3gIbu-32" value="5" style="text;html=1;align=center;verticalAlign=middle;whiteSpace=wrap;rounded=0;" parent="1" vertex="1">
          <mxGeometry x="270" y="590" width="20" height="30" as="geometry" />
        </mxCell>
        <mxCell id="LJNIjv_O-m_A1Em3gIbu-33" value="6" style="text;html=1;align=center;verticalAlign=middle;whiteSpace=wrap;rounded=0;" parent="1" vertex="1">
          <mxGeometry x="310" y="590" width="20" height="30" as="geometry" />
        </mxCell>
        <mxCell id="LJNIjv_O-m_A1Em3gIbu-34" value="7" style="text;html=1;align=center;verticalAlign=middle;whiteSpace=wrap;rounded=0;" parent="1" vertex="1">
          <mxGeometry x="350" y="590" width="20" height="30" as="geometry" />
        </mxCell>
        <mxCell id="LJNIjv_O-m_A1Em3gIbu-35" value="8" style="text;html=1;align=center;verticalAlign=middle;whiteSpace=wrap;rounded=0;" parent="1" vertex="1">
          <mxGeometry x="390" y="590" width="20" height="30" as="geometry" />
        </mxCell>
        <mxCell id="LJNIjv_O-m_A1Em3gIbu-36" value="9" style="text;html=1;align=center;verticalAlign=middle;whiteSpace=wrap;rounded=0;" parent="1" vertex="1">
          <mxGeometry x="430" y="590" width="20" height="30" as="geometry" />
        </mxCell>
        <mxCell id="LJNIjv_O-m_A1Em3gIbu-37" value="10" style="text;html=1;align=center;verticalAlign=middle;whiteSpace=wrap;rounded=0;" parent="1" vertex="1">
          <mxGeometry x="470" y="590" width="20" height="30" as="geometry" />
        </mxCell>
        <mxCell id="LJNIjv_O-m_A1Em3gIbu-38" value="11" style="text;html=1;align=center;verticalAlign=middle;whiteSpace=wrap;rounded=0;" parent="1" vertex="1">
          <mxGeometry x="510" y="590" width="20" height="30" as="geometry" />
        </mxCell>
        <mxCell id="LJNIjv_O-m_A1Em3gIbu-39" value="12" style="text;html=1;align=center;verticalAlign=middle;whiteSpace=wrap;rounded=0;" parent="1" vertex="1">
          <mxGeometry x="550" y="590" width="20" height="30" as="geometry" />
        </mxCell>
        <mxCell id="LJNIjv_O-m_A1Em3gIbu-40" value="A" style="ellipse;whiteSpace=wrap;html=1;aspect=fixed;fillColor=#f5f5f5;fontColor=#333333;strokeColor=#666666;" parent="1" vertex="1">
          <mxGeometry x="65" y="239" width="30" height="30" as="geometry" />
        </mxCell>
        <mxCell id="LJNIjv_O-m_A1Em3gIbu-41" value="A" style="ellipse;whiteSpace=wrap;html=1;aspect=fixed;fillColor=#f5f5f5;fontColor=#333333;strokeColor=#666666;" parent="1" vertex="1">
          <mxGeometry x="105" y="551" width="30" height="30" as="geometry" />
        </mxCell>
        <mxCell id="LJNIjv_O-m_A1Em3gIbu-42" value="B" style="ellipse;whiteSpace=wrap;html=1;aspect=fixed;fillColor=#dae8fc;strokeColor=#6c8ebf;" parent="1" vertex="1">
          <mxGeometry x="105" y="239" width="30" height="30" as="geometry" />
        </mxCell>
        <mxCell id="LJNIjv_O-m_A1Em3gIbu-43" value="B" style="ellipse;whiteSpace=wrap;html=1;aspect=fixed;fillColor=#dae8fc;strokeColor=#6c8ebf;" parent="1" vertex="1">
          <mxGeometry x="545" y="551" width="30" height="30" as="geometry" />
        </mxCell>
        <mxCell id="LJNIjv_O-m_A1Em3gIbu-44" value="C" style="ellipse;whiteSpace=wrap;html=1;aspect=fixed;fillColor=#d5e8d4;strokeColor=#82b366;" parent="1" vertex="1">
          <mxGeometry x="185" y="239" width="30" height="30" as="geometry" />
        </mxCell>
        <mxCell id="LJNIjv_O-m_A1Em3gIbu-45" value="C" style="ellipse;whiteSpace=wrap;html=1;aspect=fixed;fillColor=#d5e8d4;strokeColor=#82b366;" parent="1" vertex="1">
          <mxGeometry x="145" y="551" width="30" height="30" as="geometry" />
        </mxCell>
        <mxCell id="LJNIjv_O-m_A1Em3gIbu-46" value="D" style="ellipse;whiteSpace=wrap;html=1;aspect=fixed;fillColor=#ffe6cc;strokeColor=#d79b00;" parent="1" vertex="1">
          <mxGeometry x="225" y="239" width="30" height="30" as="geometry" />
        </mxCell>
        <mxCell id="LJNIjv_O-m_A1Em3gIbu-48" value="E" style="ellipse;whiteSpace=wrap;html=1;aspect=fixed;fillColor=#fff2cc;strokeColor=#d6b656;" parent="1" vertex="1">
          <mxGeometry x="265" y="551" width="30" height="30" as="geometry" />
        </mxCell>
        <mxCell id="LJNIjv_O-m_A1Em3gIbu-49" value="F1" style="ellipse;whiteSpace=wrap;html=1;aspect=fixed;fillColor=#f8cecc;strokeColor=#b85450;" parent="1" vertex="1">
          <mxGeometry x="305" y="239" width="30" height="30" as="geometry" />
        </mxCell>
        <mxCell id="LJNIjv_O-m_A1Em3gIbu-50" value="F2" style="ellipse;whiteSpace=wrap;html=1;aspect=fixed;fillColor=#f8cecc;strokeColor=#b85450;" parent="1" vertex="1">
          <mxGeometry x="305" y="209" width="30" height="30" as="geometry" />
        </mxCell>
        <mxCell id="LJNIjv_O-m_A1Em3gIbu-51" value="G" style="ellipse;whiteSpace=wrap;html=1;aspect=fixed;fillColor=#e1d5e7;strokeColor=#9673a6;" parent="1" vertex="1">
          <mxGeometry x="385" y="239" width="30" height="30" as="geometry" />
        </mxCell>
        <mxCell id="LJNIjv_O-m_A1Em3gIbu-52" value="F" style="ellipse;whiteSpace=wrap;html=1;aspect=fixed;fillColor=#f8cecc;strokeColor=#b85450;" parent="1" vertex="1">
          <mxGeometry x="345" y="551" width="30" height="30" as="geometry" />
        </mxCell>
        <mxCell id="LJNIjv_O-m_A1Em3gIbu-53" value="G1" style="ellipse;whiteSpace=wrap;html=1;aspect=fixed;fillColor=#e1d5e7;strokeColor=#9673a6;" parent="1" vertex="1">
          <mxGeometry x="425" y="551" width="30" height="30" as="geometry" />
        </mxCell>
        <mxCell id="LJNIjv_O-m_A1Em3gIbu-54" value="G2" style="ellipse;whiteSpace=wrap;html=1;aspect=fixed;fillColor=#e1d5e7;strokeColor=#9673a6;" parent="1" vertex="1">
          <mxGeometry x="425" y="521" width="30" height="30" as="geometry" />
        </mxCell>
        <mxCell id="u_NoSWsdKyC16Sh9KAaJ-1" value="&lt;b&gt;RESULT&lt;/b&gt;" style="text;html=1;align=center;verticalAlign=middle;whiteSpace=wrap;rounded=0;" parent="1" vertex="1">
          <mxGeometry x="20" y="710" width="60" height="30" as="geometry" />
        </mxCell>
        <mxCell id="u_NoSWsdKyC16Sh9KAaJ-2" value="" style="endArrow=classic;html=1;rounded=0;endFill=1;strokeWidth=3;" parent="1" edge="1">
          <mxGeometry width="50" height="50" relative="1" as="geometry">
            <mxPoint x="80" y="710" as="sourcePoint" />
            <mxPoint x="580" y="710" as="targetPoint" />
          </mxGeometry>
        </mxCell>
        <mxCell id="u_NoSWsdKyC16Sh9KAaJ-3" value="1" style="text;html=1;align=center;verticalAlign=middle;whiteSpace=wrap;rounded=0;" parent="1" vertex="1">
          <mxGeometry x="110" y="710" width="20" height="30" as="geometry" />
        </mxCell>
        <mxCell id="u_NoSWsdKyC16Sh9KAaJ-4" value="0" style="text;html=1;align=center;verticalAlign=middle;whiteSpace=wrap;rounded=0;" parent="1" vertex="1">
          <mxGeometry x="70" y="710" width="20" height="30" as="geometry" />
        </mxCell>
        <mxCell id="u_NoSWsdKyC16Sh9KAaJ-5" value="2" style="text;html=1;align=center;verticalAlign=middle;whiteSpace=wrap;rounded=0;" parent="1" vertex="1">
          <mxGeometry x="150" y="710" width="20" height="30" as="geometry" />
        </mxCell>
        <mxCell id="u_NoSWsdKyC16Sh9KAaJ-6" value="3" style="text;html=1;align=center;verticalAlign=middle;whiteSpace=wrap;rounded=0;" parent="1" vertex="1">
          <mxGeometry x="190" y="710" width="20" height="30" as="geometry" />
        </mxCell>
        <mxCell id="u_NoSWsdKyC16Sh9KAaJ-7" value="4" style="text;html=1;align=center;verticalAlign=middle;whiteSpace=wrap;rounded=0;" parent="1" vertex="1">
          <mxGeometry x="230" y="710" width="20" height="30" as="geometry" />
        </mxCell>
        <mxCell id="u_NoSWsdKyC16Sh9KAaJ-8" value="5" style="text;html=1;align=center;verticalAlign=middle;whiteSpace=wrap;rounded=0;" parent="1" vertex="1">
          <mxGeometry x="270" y="710" width="20" height="30" as="geometry" />
        </mxCell>
        <mxCell id="u_NoSWsdKyC16Sh9KAaJ-9" value="6" style="text;html=1;align=center;verticalAlign=middle;whiteSpace=wrap;rounded=0;" parent="1" vertex="1">
          <mxGeometry x="310" y="710" width="20" height="30" as="geometry" />
        </mxCell>
        <mxCell id="u_NoSWsdKyC16Sh9KAaJ-10" value="7" style="text;html=1;align=center;verticalAlign=middle;whiteSpace=wrap;rounded=0;" parent="1" vertex="1">
          <mxGeometry x="350" y="710" width="20" height="30" as="geometry" />
        </mxCell>
        <mxCell id="u_NoSWsdKyC16Sh9KAaJ-11" value="8" style="text;html=1;align=center;verticalAlign=middle;whiteSpace=wrap;rounded=0;" parent="1" vertex="1">
          <mxGeometry x="390" y="710" width="20" height="30" as="geometry" />
        </mxCell>
        <mxCell id="u_NoSWsdKyC16Sh9KAaJ-12" value="9" style="text;html=1;align=center;verticalAlign=middle;whiteSpace=wrap;rounded=0;" parent="1" vertex="1">
          <mxGeometry x="430" y="710" width="20" height="30" as="geometry" />
        </mxCell>
        <mxCell id="u_NoSWsdKyC16Sh9KAaJ-13" value="10" style="text;html=1;align=center;verticalAlign=middle;whiteSpace=wrap;rounded=0;" parent="1" vertex="1">
          <mxGeometry x="470" y="710" width="20" height="30" as="geometry" />
        </mxCell>
        <mxCell id="u_NoSWsdKyC16Sh9KAaJ-14" value="11" style="text;html=1;align=center;verticalAlign=middle;whiteSpace=wrap;rounded=0;" parent="1" vertex="1">
          <mxGeometry x="510" y="710" width="20" height="30" as="geometry" />
        </mxCell>
        <mxCell id="u_NoSWsdKyC16Sh9KAaJ-15" value="12" style="text;html=1;align=center;verticalAlign=middle;whiteSpace=wrap;rounded=0;" parent="1" vertex="1">
          <mxGeometry x="550" y="710" width="20" height="30" as="geometry" />
        </mxCell>
        <mxCell id="u_NoSWsdKyC16Sh9KAaJ-22" value="&lt;b&gt;&lt;font style=&quot;font-size: 15px;&quot;&gt;KStream-KTable Inner Join&lt;/font&gt;&lt;/b&gt;" style="text;html=1;align=center;verticalAlign=middle;whiteSpace=wrap;rounded=0;" parent="1" vertex="1">
          <mxGeometry x="40" y="170" width="215" height="30" as="geometry" />
        </mxCell>
        <mxCell id="u_NoSWsdKyC16Sh9KAaJ-24" value="C, C" style="rounded=1;whiteSpace=wrap;html=1;fillColor=#d5e8d4;strokeColor=#82b366;fontSize=11;" parent="1" vertex="1">
          <mxGeometry x="180.5" y="671" width="39" height="30" as="geometry" />
        </mxCell>
        <mxCell id="s3AQ3x3ffBdiTEU-oynQ-278" value="" style="shape=table;startSize=0;container=1;collapsible=0;childLayout=tableLayout;fontSize=9;" parent="1" vertex="1">
          <mxGeometry x="65" y="335" width="21" height="186" as="geometry" />
        </mxCell>
        <mxCell id="s3AQ3x3ffBdiTEU-oynQ-279" value="" style="shape=tableRow;horizontal=0;startSize=0;swimlaneHead=0;swimlaneBody=0;strokeColor=inherit;top=0;left=0;bottom=0;right=0;collapsible=0;dropTarget=0;fillColor=none;points=[[0,0.5],[1,0.5]];portConstraint=eastwest;fontSize=16;" parent="s3AQ3x3ffBdiTEU-oynQ-278" vertex="1">
          <mxGeometry width="21" height="31" as="geometry" />
        </mxCell>
        <mxCell id="s3AQ3x3ffBdiTEU-oynQ-280" value="" style="shape=partialRectangle;html=1;whiteSpace=wrap;connectable=0;strokeColor=inherit;overflow=hidden;fillColor=none;top=0;left=0;bottom=0;right=0;pointerEvents=1;fontSize=12;" parent="s3AQ3x3ffBdiTEU-oynQ-279" vertex="1">
          <mxGeometry width="21" height="31" as="geometry">
            <mxRectangle width="21" height="31" as="alternateBounds" />
          </mxGeometry>
        </mxCell>
        <mxCell id="s3AQ3x3ffBdiTEU-oynQ-281" style="shape=tableRow;horizontal=0;startSize=0;swimlaneHead=0;swimlaneBody=0;strokeColor=inherit;top=0;left=0;bottom=0;right=0;collapsible=0;dropTarget=0;fillColor=none;points=[[0,0.5],[1,0.5]];portConstraint=eastwest;fontSize=16;" parent="s3AQ3x3ffBdiTEU-oynQ-278" vertex="1">
          <mxGeometry y="31" width="21" height="31" as="geometry" />
        </mxCell>
        <mxCell id="s3AQ3x3ffBdiTEU-oynQ-282" style="shape=partialRectangle;html=1;whiteSpace=wrap;connectable=0;strokeColor=inherit;overflow=hidden;fillColor=none;top=0;left=0;bottom=0;right=0;pointerEvents=1;fontSize=12;" parent="s3AQ3x3ffBdiTEU-oynQ-281" vertex="1">
          <mxGeometry width="21" height="31" as="geometry">
            <mxRectangle width="21" height="31" as="alternateBounds" />
          </mxGeometry>
        </mxCell>
        <mxCell id="s3AQ3x3ffBdiTEU-oynQ-283" style="shape=tableRow;horizontal=0;startSize=0;swimlaneHead=0;swimlaneBody=0;strokeColor=inherit;top=0;left=0;bottom=0;right=0;collapsible=0;dropTarget=0;fillColor=none;points=[[0,0.5],[1,0.5]];portConstraint=eastwest;fontSize=16;" parent="s3AQ3x3ffBdiTEU-oynQ-278" vertex="1">
          <mxGeometry y="62" width="21" height="31" as="geometry" />
        </mxCell>
        <mxCell id="s3AQ3x3ffBdiTEU-oynQ-284" style="shape=partialRectangle;html=1;whiteSpace=wrap;connectable=0;strokeColor=inherit;overflow=hidden;fillColor=none;top=0;left=0;bottom=0;right=0;pointerEvents=1;fontSize=12;" parent="s3AQ3x3ffBdiTEU-oynQ-283" vertex="1">
          <mxGeometry width="21" height="31" as="geometry">
            <mxRectangle width="21" height="31" as="alternateBounds" />
          </mxGeometry>
        </mxCell>
        <mxCell id="s3AQ3x3ffBdiTEU-oynQ-285" style="shape=tableRow;horizontal=0;startSize=0;swimlaneHead=0;swimlaneBody=0;strokeColor=inherit;top=0;left=0;bottom=0;right=0;collapsible=0;dropTarget=0;fillColor=none;points=[[0,0.5],[1,0.5]];portConstraint=eastwest;fontSize=16;" parent="s3AQ3x3ffBdiTEU-oynQ-278" vertex="1">
          <mxGeometry y="93" width="21" height="31" as="geometry" />
        </mxCell>
        <mxCell id="s3AQ3x3ffBdiTEU-oynQ-286" style="shape=partialRectangle;html=1;whiteSpace=wrap;connectable=0;strokeColor=inherit;overflow=hidden;fillColor=none;top=0;left=0;bottom=0;right=0;pointerEvents=1;fontSize=12;" parent="s3AQ3x3ffBdiTEU-oynQ-285" vertex="1">
          <mxGeometry width="21" height="31" as="geometry">
            <mxRectangle width="21" height="31" as="alternateBounds" />
          </mxGeometry>
        </mxCell>
        <mxCell id="s3AQ3x3ffBdiTEU-oynQ-287" style="shape=tableRow;horizontal=0;startSize=0;swimlaneHead=0;swimlaneBody=0;strokeColor=inherit;top=0;left=0;bottom=0;right=0;collapsible=0;dropTarget=0;fillColor=none;points=[[0,0.5],[1,0.5]];portConstraint=eastwest;fontSize=16;" parent="s3AQ3x3ffBdiTEU-oynQ-278" vertex="1">
          <mxGeometry y="124" width="21" height="31" as="geometry" />
        </mxCell>
        <mxCell id="s3AQ3x3ffBdiTEU-oynQ-288" style="shape=partialRectangle;html=1;whiteSpace=wrap;connectable=0;strokeColor=inherit;overflow=hidden;fillColor=none;top=0;left=0;bottom=0;right=0;pointerEvents=1;fontSize=12;" parent="s3AQ3x3ffBdiTEU-oynQ-287" vertex="1">
          <mxGeometry width="21" height="31" as="geometry">
            <mxRectangle width="21" height="31" as="alternateBounds" />
          </mxGeometry>
        </mxCell>
        <mxCell id="s3AQ3x3ffBdiTEU-oynQ-289" style="shape=tableRow;horizontal=0;startSize=0;swimlaneHead=0;swimlaneBody=0;strokeColor=inherit;top=0;left=0;bottom=0;right=0;collapsible=0;dropTarget=0;fillColor=none;points=[[0,0.5],[1,0.5]];portConstraint=eastwest;fontSize=16;" parent="s3AQ3x3ffBdiTEU-oynQ-278" vertex="1">
          <mxGeometry y="155" width="21" height="31" as="geometry" />
        </mxCell>
        <mxCell id="s3AQ3x3ffBdiTEU-oynQ-290" style="shape=partialRectangle;html=1;whiteSpace=wrap;connectable=0;strokeColor=inherit;overflow=hidden;fillColor=none;top=0;left=0;bottom=0;right=0;pointerEvents=1;fontSize=12;" parent="s3AQ3x3ffBdiTEU-oynQ-289" vertex="1">
          <mxGeometry width="21" height="31" as="geometry">
            <mxRectangle width="21" height="31" as="alternateBounds" />
          </mxGeometry>
        </mxCell>
        <mxCell id="s3AQ3x3ffBdiTEU-oynQ-304" value="" style="shape=table;startSize=0;container=1;collapsible=0;childLayout=tableLayout;fontSize=9;" parent="1" vertex="1">
          <mxGeometry x="109.5" y="335" width="21" height="186" as="geometry" />
        </mxCell>
        <mxCell id="s3AQ3x3ffBdiTEU-oynQ-305" value="" style="shape=tableRow;horizontal=0;startSize=0;swimlaneHead=0;swimlaneBody=0;strokeColor=inherit;top=0;left=0;bottom=0;right=0;collapsible=0;dropTarget=0;fillColor=none;points=[[0,0.5],[1,0.5]];portConstraint=eastwest;fontSize=16;" parent="s3AQ3x3ffBdiTEU-oynQ-304" vertex="1">
          <mxGeometry width="21" height="31" as="geometry" />
        </mxCell>
        <mxCell id="s3AQ3x3ffBdiTEU-oynQ-306" value="A" style="shape=partialRectangle;html=1;whiteSpace=wrap;connectable=0;strokeColor=inherit;overflow=hidden;fillColor=none;top=0;left=0;bottom=0;right=0;pointerEvents=1;fontSize=12;" parent="s3AQ3x3ffBdiTEU-oynQ-305" vertex="1">
          <mxGeometry width="21" height="31" as="geometry">
            <mxRectangle width="21" height="31" as="alternateBounds" />
          </mxGeometry>
        </mxCell>
        <mxCell id="s3AQ3x3ffBdiTEU-oynQ-307" style="shape=tableRow;horizontal=0;startSize=0;swimlaneHead=0;swimlaneBody=0;strokeColor=inherit;top=0;left=0;bottom=0;right=0;collapsible=0;dropTarget=0;fillColor=none;points=[[0,0.5],[1,0.5]];portConstraint=eastwest;fontSize=16;" parent="s3AQ3x3ffBdiTEU-oynQ-304" vertex="1">
          <mxGeometry y="31" width="21" height="31" as="geometry" />
        </mxCell>
        <mxCell id="s3AQ3x3ffBdiTEU-oynQ-308" style="shape=partialRectangle;html=1;whiteSpace=wrap;connectable=0;strokeColor=inherit;overflow=hidden;fillColor=none;top=0;left=0;bottom=0;right=0;pointerEvents=1;fontSize=12;" parent="s3AQ3x3ffBdiTEU-oynQ-307" vertex="1">
          <mxGeometry width="21" height="31" as="geometry">
            <mxRectangle width="21" height="31" as="alternateBounds" />
          </mxGeometry>
        </mxCell>
        <mxCell id="s3AQ3x3ffBdiTEU-oynQ-309" style="shape=tableRow;horizontal=0;startSize=0;swimlaneHead=0;swimlaneBody=0;strokeColor=inherit;top=0;left=0;bottom=0;right=0;collapsible=0;dropTarget=0;fillColor=none;points=[[0,0.5],[1,0.5]];portConstraint=eastwest;fontSize=16;" parent="s3AQ3x3ffBdiTEU-oynQ-304" vertex="1">
          <mxGeometry y="62" width="21" height="31" as="geometry" />
        </mxCell>
        <mxCell id="s3AQ3x3ffBdiTEU-oynQ-310" style="shape=partialRectangle;html=1;whiteSpace=wrap;connectable=0;strokeColor=inherit;overflow=hidden;fillColor=none;top=0;left=0;bottom=0;right=0;pointerEvents=1;fontSize=12;" parent="s3AQ3x3ffBdiTEU-oynQ-309" vertex="1">
          <mxGeometry width="21" height="31" as="geometry">
            <mxRectangle width="21" height="31" as="alternateBounds" />
          </mxGeometry>
        </mxCell>
        <mxCell id="s3AQ3x3ffBdiTEU-oynQ-311" style="shape=tableRow;horizontal=0;startSize=0;swimlaneHead=0;swimlaneBody=0;strokeColor=inherit;top=0;left=0;bottom=0;right=0;collapsible=0;dropTarget=0;fillColor=none;points=[[0,0.5],[1,0.5]];portConstraint=eastwest;fontSize=16;" parent="s3AQ3x3ffBdiTEU-oynQ-304" vertex="1">
          <mxGeometry y="93" width="21" height="31" as="geometry" />
        </mxCell>
        <mxCell id="s3AQ3x3ffBdiTEU-oynQ-312" style="shape=partialRectangle;html=1;whiteSpace=wrap;connectable=0;strokeColor=inherit;overflow=hidden;fillColor=none;top=0;left=0;bottom=0;right=0;pointerEvents=1;fontSize=12;" parent="s3AQ3x3ffBdiTEU-oynQ-311" vertex="1">
          <mxGeometry width="21" height="31" as="geometry">
            <mxRectangle width="21" height="31" as="alternateBounds" />
          </mxGeometry>
        </mxCell>
        <mxCell id="s3AQ3x3ffBdiTEU-oynQ-313" style="shape=tableRow;horizontal=0;startSize=0;swimlaneHead=0;swimlaneBody=0;strokeColor=inherit;top=0;left=0;bottom=0;right=0;collapsible=0;dropTarget=0;fillColor=none;points=[[0,0.5],[1,0.5]];portConstraint=eastwest;fontSize=16;" parent="s3AQ3x3ffBdiTEU-oynQ-304" vertex="1">
          <mxGeometry y="124" width="21" height="31" as="geometry" />
        </mxCell>
        <mxCell id="s3AQ3x3ffBdiTEU-oynQ-314" style="shape=partialRectangle;html=1;whiteSpace=wrap;connectable=0;strokeColor=inherit;overflow=hidden;fillColor=none;top=0;left=0;bottom=0;right=0;pointerEvents=1;fontSize=12;" parent="s3AQ3x3ffBdiTEU-oynQ-313" vertex="1">
          <mxGeometry width="21" height="31" as="geometry">
            <mxRectangle width="21" height="31" as="alternateBounds" />
          </mxGeometry>
        </mxCell>
        <mxCell id="s3AQ3x3ffBdiTEU-oynQ-315" style="shape=tableRow;horizontal=0;startSize=0;swimlaneHead=0;swimlaneBody=0;strokeColor=inherit;top=0;left=0;bottom=0;right=0;collapsible=0;dropTarget=0;fillColor=none;points=[[0,0.5],[1,0.5]];portConstraint=eastwest;fontSize=16;" parent="s3AQ3x3ffBdiTEU-oynQ-304" vertex="1">
          <mxGeometry y="155" width="21" height="31" as="geometry" />
        </mxCell>
        <mxCell id="s3AQ3x3ffBdiTEU-oynQ-316" style="shape=partialRectangle;html=1;whiteSpace=wrap;connectable=0;strokeColor=inherit;overflow=hidden;fillColor=none;top=0;left=0;bottom=0;right=0;pointerEvents=1;fontSize=12;" parent="s3AQ3x3ffBdiTEU-oynQ-315" vertex="1">
          <mxGeometry width="21" height="31" as="geometry">
            <mxRectangle width="21" height="31" as="alternateBounds" />
          </mxGeometry>
        </mxCell>
        <mxCell id="s3AQ3x3ffBdiTEU-oynQ-317" value="" style="shape=table;startSize=0;container=1;collapsible=0;childLayout=tableLayout;fontSize=9;" parent="1" vertex="1">
          <mxGeometry x="149.5" y="335" width="21" height="186" as="geometry" />
        </mxCell>
        <mxCell id="s3AQ3x3ffBdiTEU-oynQ-318" value="" style="shape=tableRow;horizontal=0;startSize=0;swimlaneHead=0;swimlaneBody=0;strokeColor=inherit;top=0;left=0;bottom=0;right=0;collapsible=0;dropTarget=0;fillColor=none;points=[[0,0.5],[1,0.5]];portConstraint=eastwest;fontSize=16;" parent="s3AQ3x3ffBdiTEU-oynQ-317" vertex="1">
          <mxGeometry width="21" height="31" as="geometry" />
        </mxCell>
        <mxCell id="s3AQ3x3ffBdiTEU-oynQ-319" value="A" style="shape=partialRectangle;html=1;whiteSpace=wrap;connectable=0;strokeColor=inherit;overflow=hidden;fillColor=none;top=0;left=0;bottom=0;right=0;pointerEvents=1;fontSize=12;" parent="s3AQ3x3ffBdiTEU-oynQ-318" vertex="1">
          <mxGeometry width="21" height="31" as="geometry">
            <mxRectangle width="21" height="31" as="alternateBounds" />
          </mxGeometry>
        </mxCell>
        <mxCell id="s3AQ3x3ffBdiTEU-oynQ-320" style="shape=tableRow;horizontal=0;startSize=0;swimlaneHead=0;swimlaneBody=0;strokeColor=inherit;top=0;left=0;bottom=0;right=0;collapsible=0;dropTarget=0;fillColor=none;points=[[0,0.5],[1,0.5]];portConstraint=eastwest;fontSize=16;" parent="s3AQ3x3ffBdiTEU-oynQ-317" vertex="1">
          <mxGeometry y="31" width="21" height="31" as="geometry" />
        </mxCell>
        <mxCell id="s3AQ3x3ffBdiTEU-oynQ-321" value="C" style="shape=partialRectangle;html=1;whiteSpace=wrap;connectable=0;strokeColor=inherit;overflow=hidden;fillColor=none;top=0;left=0;bottom=0;right=0;pointerEvents=1;fontSize=12;" parent="s3AQ3x3ffBdiTEU-oynQ-320" vertex="1">
          <mxGeometry width="21" height="31" as="geometry">
            <mxRectangle width="21" height="31" as="alternateBounds" />
          </mxGeometry>
        </mxCell>
        <mxCell id="s3AQ3x3ffBdiTEU-oynQ-322" style="shape=tableRow;horizontal=0;startSize=0;swimlaneHead=0;swimlaneBody=0;strokeColor=inherit;top=0;left=0;bottom=0;right=0;collapsible=0;dropTarget=0;fillColor=none;points=[[0,0.5],[1,0.5]];portConstraint=eastwest;fontSize=16;" parent="s3AQ3x3ffBdiTEU-oynQ-317" vertex="1">
          <mxGeometry y="62" width="21" height="31" as="geometry" />
        </mxCell>
        <mxCell id="s3AQ3x3ffBdiTEU-oynQ-323" style="shape=partialRectangle;html=1;whiteSpace=wrap;connectable=0;strokeColor=inherit;overflow=hidden;fillColor=none;top=0;left=0;bottom=0;right=0;pointerEvents=1;fontSize=12;" parent="s3AQ3x3ffBdiTEU-oynQ-322" vertex="1">
          <mxGeometry width="21" height="31" as="geometry">
            <mxRectangle width="21" height="31" as="alternateBounds" />
          </mxGeometry>
        </mxCell>
        <mxCell id="s3AQ3x3ffBdiTEU-oynQ-324" style="shape=tableRow;horizontal=0;startSize=0;swimlaneHead=0;swimlaneBody=0;strokeColor=inherit;top=0;left=0;bottom=0;right=0;collapsible=0;dropTarget=0;fillColor=none;points=[[0,0.5],[1,0.5]];portConstraint=eastwest;fontSize=16;" parent="s3AQ3x3ffBdiTEU-oynQ-317" vertex="1">
          <mxGeometry y="93" width="21" height="31" as="geometry" />
        </mxCell>
        <mxCell id="s3AQ3x3ffBdiTEU-oynQ-325" style="shape=partialRectangle;html=1;whiteSpace=wrap;connectable=0;strokeColor=inherit;overflow=hidden;fillColor=none;top=0;left=0;bottom=0;right=0;pointerEvents=1;fontSize=12;" parent="s3AQ3x3ffBdiTEU-oynQ-324" vertex="1">
          <mxGeometry width="21" height="31" as="geometry">
            <mxRectangle width="21" height="31" as="alternateBounds" />
          </mxGeometry>
        </mxCell>
        <mxCell id="s3AQ3x3ffBdiTEU-oynQ-326" style="shape=tableRow;horizontal=0;startSize=0;swimlaneHead=0;swimlaneBody=0;strokeColor=inherit;top=0;left=0;bottom=0;right=0;collapsible=0;dropTarget=0;fillColor=none;points=[[0,0.5],[1,0.5]];portConstraint=eastwest;fontSize=16;" parent="s3AQ3x3ffBdiTEU-oynQ-317" vertex="1">
          <mxGeometry y="124" width="21" height="31" as="geometry" />
        </mxCell>
        <mxCell id="s3AQ3x3ffBdiTEU-oynQ-327" style="shape=partialRectangle;html=1;whiteSpace=wrap;connectable=0;strokeColor=inherit;overflow=hidden;fillColor=none;top=0;left=0;bottom=0;right=0;pointerEvents=1;fontSize=12;" parent="s3AQ3x3ffBdiTEU-oynQ-326" vertex="1">
          <mxGeometry width="21" height="31" as="geometry">
            <mxRectangle width="21" height="31" as="alternateBounds" />
          </mxGeometry>
        </mxCell>
        <mxCell id="s3AQ3x3ffBdiTEU-oynQ-328" style="shape=tableRow;horizontal=0;startSize=0;swimlaneHead=0;swimlaneBody=0;strokeColor=inherit;top=0;left=0;bottom=0;right=0;collapsible=0;dropTarget=0;fillColor=none;points=[[0,0.5],[1,0.5]];portConstraint=eastwest;fontSize=16;" parent="s3AQ3x3ffBdiTEU-oynQ-317" vertex="1">
          <mxGeometry y="155" width="21" height="31" as="geometry" />
        </mxCell>
        <mxCell id="s3AQ3x3ffBdiTEU-oynQ-329" style="shape=partialRectangle;html=1;whiteSpace=wrap;connectable=0;strokeColor=inherit;overflow=hidden;fillColor=none;top=0;left=0;bottom=0;right=0;pointerEvents=1;fontSize=12;" parent="s3AQ3x3ffBdiTEU-oynQ-328" vertex="1">
          <mxGeometry width="21" height="31" as="geometry">
            <mxRectangle width="21" height="31" as="alternateBounds" />
          </mxGeometry>
        </mxCell>
        <mxCell id="s3AQ3x3ffBdiTEU-oynQ-330" value="" style="shape=table;startSize=0;container=1;collapsible=0;childLayout=tableLayout;fontSize=9;" parent="1" vertex="1">
          <mxGeometry x="189.5" y="335" width="21" height="186" as="geometry" />
        </mxCell>
        <mxCell id="s3AQ3x3ffBdiTEU-oynQ-331" value="" style="shape=tableRow;horizontal=0;startSize=0;swimlaneHead=0;swimlaneBody=0;strokeColor=inherit;top=0;left=0;bottom=0;right=0;collapsible=0;dropTarget=0;fillColor=none;points=[[0,0.5],[1,0.5]];portConstraint=eastwest;fontSize=16;" parent="s3AQ3x3ffBdiTEU-oynQ-330" vertex="1">
          <mxGeometry width="21" height="31" as="geometry" />
        </mxCell>
        <mxCell id="s3AQ3x3ffBdiTEU-oynQ-332" value="A" style="shape=partialRectangle;html=1;whiteSpace=wrap;connectable=0;strokeColor=inherit;overflow=hidden;fillColor=none;top=0;left=0;bottom=0;right=0;pointerEvents=1;fontSize=12;" parent="s3AQ3x3ffBdiTEU-oynQ-331" vertex="1">
          <mxGeometry width="21" height="31" as="geometry">
            <mxRectangle width="21" height="31" as="alternateBounds" />
          </mxGeometry>
        </mxCell>
        <mxCell id="s3AQ3x3ffBdiTEU-oynQ-333" style="shape=tableRow;horizontal=0;startSize=0;swimlaneHead=0;swimlaneBody=0;strokeColor=inherit;top=0;left=0;bottom=0;right=0;collapsible=0;dropTarget=0;fillColor=none;points=[[0,0.5],[1,0.5]];portConstraint=eastwest;fontSize=16;" parent="s3AQ3x3ffBdiTEU-oynQ-330" vertex="1">
          <mxGeometry y="31" width="21" height="31" as="geometry" />
        </mxCell>
        <mxCell id="s3AQ3x3ffBdiTEU-oynQ-334" value="C" style="shape=partialRectangle;html=1;whiteSpace=wrap;connectable=0;strokeColor=inherit;overflow=hidden;fillColor=none;top=0;left=0;bottom=0;right=0;pointerEvents=1;fontSize=12;" parent="s3AQ3x3ffBdiTEU-oynQ-333" vertex="1">
          <mxGeometry width="21" height="31" as="geometry">
            <mxRectangle width="21" height="31" as="alternateBounds" />
          </mxGeometry>
        </mxCell>
        <mxCell id="s3AQ3x3ffBdiTEU-oynQ-335" style="shape=tableRow;horizontal=0;startSize=0;swimlaneHead=0;swimlaneBody=0;strokeColor=inherit;top=0;left=0;bottom=0;right=0;collapsible=0;dropTarget=0;fillColor=none;points=[[0,0.5],[1,0.5]];portConstraint=eastwest;fontSize=16;" parent="s3AQ3x3ffBdiTEU-oynQ-330" vertex="1">
          <mxGeometry y="62" width="21" height="31" as="geometry" />
        </mxCell>
        <mxCell id="s3AQ3x3ffBdiTEU-oynQ-336" style="shape=partialRectangle;html=1;whiteSpace=wrap;connectable=0;strokeColor=inherit;overflow=hidden;fillColor=none;top=0;left=0;bottom=0;right=0;pointerEvents=1;fontSize=12;" parent="s3AQ3x3ffBdiTEU-oynQ-335" vertex="1">
          <mxGeometry width="21" height="31" as="geometry">
            <mxRectangle width="21" height="31" as="alternateBounds" />
          </mxGeometry>
        </mxCell>
        <mxCell id="s3AQ3x3ffBdiTEU-oynQ-337" style="shape=tableRow;horizontal=0;startSize=0;swimlaneHead=0;swimlaneBody=0;strokeColor=inherit;top=0;left=0;bottom=0;right=0;collapsible=0;dropTarget=0;fillColor=none;points=[[0,0.5],[1,0.5]];portConstraint=eastwest;fontSize=16;" parent="s3AQ3x3ffBdiTEU-oynQ-330" vertex="1">
          <mxGeometry y="93" width="21" height="31" as="geometry" />
        </mxCell>
        <mxCell id="s3AQ3x3ffBdiTEU-oynQ-338" style="shape=partialRectangle;html=1;whiteSpace=wrap;connectable=0;strokeColor=inherit;overflow=hidden;fillColor=none;top=0;left=0;bottom=0;right=0;pointerEvents=1;fontSize=12;" parent="s3AQ3x3ffBdiTEU-oynQ-337" vertex="1">
          <mxGeometry width="21" height="31" as="geometry">
            <mxRectangle width="21" height="31" as="alternateBounds" />
          </mxGeometry>
        </mxCell>
        <mxCell id="s3AQ3x3ffBdiTEU-oynQ-339" style="shape=tableRow;horizontal=0;startSize=0;swimlaneHead=0;swimlaneBody=0;strokeColor=inherit;top=0;left=0;bottom=0;right=0;collapsible=0;dropTarget=0;fillColor=none;points=[[0,0.5],[1,0.5]];portConstraint=eastwest;fontSize=16;" parent="s3AQ3x3ffBdiTEU-oynQ-330" vertex="1">
          <mxGeometry y="124" width="21" height="31" as="geometry" />
        </mxCell>
        <mxCell id="s3AQ3x3ffBdiTEU-oynQ-340" style="shape=partialRectangle;html=1;whiteSpace=wrap;connectable=0;strokeColor=inherit;overflow=hidden;fillColor=none;top=0;left=0;bottom=0;right=0;pointerEvents=1;fontSize=12;" parent="s3AQ3x3ffBdiTEU-oynQ-339" vertex="1">
          <mxGeometry width="21" height="31" as="geometry">
            <mxRectangle width="21" height="31" as="alternateBounds" />
          </mxGeometry>
        </mxCell>
        <mxCell id="s3AQ3x3ffBdiTEU-oynQ-341" style="shape=tableRow;horizontal=0;startSize=0;swimlaneHead=0;swimlaneBody=0;strokeColor=inherit;top=0;left=0;bottom=0;right=0;collapsible=0;dropTarget=0;fillColor=none;points=[[0,0.5],[1,0.5]];portConstraint=eastwest;fontSize=16;" parent="s3AQ3x3ffBdiTEU-oynQ-330" vertex="1">
          <mxGeometry y="155" width="21" height="31" as="geometry" />
        </mxCell>
        <mxCell id="s3AQ3x3ffBdiTEU-oynQ-342" style="shape=partialRectangle;html=1;whiteSpace=wrap;connectable=0;strokeColor=inherit;overflow=hidden;fillColor=none;top=0;left=0;bottom=0;right=0;pointerEvents=1;fontSize=12;" parent="s3AQ3x3ffBdiTEU-oynQ-341" vertex="1">
          <mxGeometry width="21" height="31" as="geometry">
            <mxRectangle width="21" height="31" as="alternateBounds" />
          </mxGeometry>
        </mxCell>
        <mxCell id="s3AQ3x3ffBdiTEU-oynQ-344" value="" style="shape=table;startSize=0;container=1;collapsible=0;childLayout=tableLayout;fontSize=9;" parent="1" vertex="1">
          <mxGeometry x="229.5" y="335" width="21" height="186" as="geometry" />
        </mxCell>
        <mxCell id="s3AQ3x3ffBdiTEU-oynQ-345" value="" style="shape=tableRow;horizontal=0;startSize=0;swimlaneHead=0;swimlaneBody=0;strokeColor=inherit;top=0;left=0;bottom=0;right=0;collapsible=0;dropTarget=0;fillColor=none;points=[[0,0.5],[1,0.5]];portConstraint=eastwest;fontSize=16;" parent="s3AQ3x3ffBdiTEU-oynQ-344" vertex="1">
          <mxGeometry width="21" height="31" as="geometry" />
        </mxCell>
        <mxCell id="s3AQ3x3ffBdiTEU-oynQ-346" value="A" style="shape=partialRectangle;html=1;whiteSpace=wrap;connectable=0;strokeColor=inherit;overflow=hidden;fillColor=none;top=0;left=0;bottom=0;right=0;pointerEvents=1;fontSize=12;" parent="s3AQ3x3ffBdiTEU-oynQ-345" vertex="1">
          <mxGeometry width="21" height="31" as="geometry">
            <mxRectangle width="21" height="31" as="alternateBounds" />
          </mxGeometry>
        </mxCell>
        <mxCell id="s3AQ3x3ffBdiTEU-oynQ-347" style="shape=tableRow;horizontal=0;startSize=0;swimlaneHead=0;swimlaneBody=0;strokeColor=inherit;top=0;left=0;bottom=0;right=0;collapsible=0;dropTarget=0;fillColor=none;points=[[0,0.5],[1,0.5]];portConstraint=eastwest;fontSize=16;" parent="s3AQ3x3ffBdiTEU-oynQ-344" vertex="1">
          <mxGeometry y="31" width="21" height="31" as="geometry" />
        </mxCell>
        <mxCell id="s3AQ3x3ffBdiTEU-oynQ-348" value="C" style="shape=partialRectangle;html=1;whiteSpace=wrap;connectable=0;strokeColor=inherit;overflow=hidden;fillColor=none;top=0;left=0;bottom=0;right=0;pointerEvents=1;fontSize=12;" parent="s3AQ3x3ffBdiTEU-oynQ-347" vertex="1">
          <mxGeometry width="21" height="31" as="geometry">
            <mxRectangle width="21" height="31" as="alternateBounds" />
          </mxGeometry>
        </mxCell>
        <mxCell id="s3AQ3x3ffBdiTEU-oynQ-349" style="shape=tableRow;horizontal=0;startSize=0;swimlaneHead=0;swimlaneBody=0;strokeColor=inherit;top=0;left=0;bottom=0;right=0;collapsible=0;dropTarget=0;fillColor=none;points=[[0,0.5],[1,0.5]];portConstraint=eastwest;fontSize=16;" parent="s3AQ3x3ffBdiTEU-oynQ-344" vertex="1">
          <mxGeometry y="62" width="21" height="31" as="geometry" />
        </mxCell>
        <mxCell id="s3AQ3x3ffBdiTEU-oynQ-350" style="shape=partialRectangle;html=1;whiteSpace=wrap;connectable=0;strokeColor=inherit;overflow=hidden;fillColor=none;top=0;left=0;bottom=0;right=0;pointerEvents=1;fontSize=12;" parent="s3AQ3x3ffBdiTEU-oynQ-349" vertex="1">
          <mxGeometry width="21" height="31" as="geometry">
            <mxRectangle width="21" height="31" as="alternateBounds" />
          </mxGeometry>
        </mxCell>
        <mxCell id="s3AQ3x3ffBdiTEU-oynQ-351" style="shape=tableRow;horizontal=0;startSize=0;swimlaneHead=0;swimlaneBody=0;strokeColor=inherit;top=0;left=0;bottom=0;right=0;collapsible=0;dropTarget=0;fillColor=none;points=[[0,0.5],[1,0.5]];portConstraint=eastwest;fontSize=16;" parent="s3AQ3x3ffBdiTEU-oynQ-344" vertex="1">
          <mxGeometry y="93" width="21" height="31" as="geometry" />
        </mxCell>
        <mxCell id="s3AQ3x3ffBdiTEU-oynQ-352" style="shape=partialRectangle;html=1;whiteSpace=wrap;connectable=0;strokeColor=inherit;overflow=hidden;fillColor=none;top=0;left=0;bottom=0;right=0;pointerEvents=1;fontSize=12;" parent="s3AQ3x3ffBdiTEU-oynQ-351" vertex="1">
          <mxGeometry width="21" height="31" as="geometry">
            <mxRectangle width="21" height="31" as="alternateBounds" />
          </mxGeometry>
        </mxCell>
        <mxCell id="s3AQ3x3ffBdiTEU-oynQ-353" style="shape=tableRow;horizontal=0;startSize=0;swimlaneHead=0;swimlaneBody=0;strokeColor=inherit;top=0;left=0;bottom=0;right=0;collapsible=0;dropTarget=0;fillColor=none;points=[[0,0.5],[1,0.5]];portConstraint=eastwest;fontSize=16;" parent="s3AQ3x3ffBdiTEU-oynQ-344" vertex="1">
          <mxGeometry y="124" width="21" height="31" as="geometry" />
        </mxCell>
        <mxCell id="s3AQ3x3ffBdiTEU-oynQ-354" style="shape=partialRectangle;html=1;whiteSpace=wrap;connectable=0;strokeColor=inherit;overflow=hidden;fillColor=none;top=0;left=0;bottom=0;right=0;pointerEvents=1;fontSize=12;" parent="s3AQ3x3ffBdiTEU-oynQ-353" vertex="1">
          <mxGeometry width="21" height="31" as="geometry">
            <mxRectangle width="21" height="31" as="alternateBounds" />
          </mxGeometry>
        </mxCell>
        <mxCell id="s3AQ3x3ffBdiTEU-oynQ-355" style="shape=tableRow;horizontal=0;startSize=0;swimlaneHead=0;swimlaneBody=0;strokeColor=inherit;top=0;left=0;bottom=0;right=0;collapsible=0;dropTarget=0;fillColor=none;points=[[0,0.5],[1,0.5]];portConstraint=eastwest;fontSize=16;" parent="s3AQ3x3ffBdiTEU-oynQ-344" vertex="1">
          <mxGeometry y="155" width="21" height="31" as="geometry" />
        </mxCell>
        <mxCell id="s3AQ3x3ffBdiTEU-oynQ-356" style="shape=partialRectangle;html=1;whiteSpace=wrap;connectable=0;strokeColor=inherit;overflow=hidden;fillColor=none;top=0;left=0;bottom=0;right=0;pointerEvents=1;fontSize=12;" parent="s3AQ3x3ffBdiTEU-oynQ-355" vertex="1">
          <mxGeometry width="21" height="31" as="geometry">
            <mxRectangle width="21" height="31" as="alternateBounds" />
          </mxGeometry>
        </mxCell>
        <mxCell id="s3AQ3x3ffBdiTEU-oynQ-357" value="" style="shape=table;startSize=0;container=1;collapsible=0;childLayout=tableLayout;fontSize=9;" parent="1" vertex="1">
          <mxGeometry x="269.5" y="335" width="21" height="186" as="geometry" />
        </mxCell>
        <mxCell id="s3AQ3x3ffBdiTEU-oynQ-358" value="" style="shape=tableRow;horizontal=0;startSize=0;swimlaneHead=0;swimlaneBody=0;strokeColor=inherit;top=0;left=0;bottom=0;right=0;collapsible=0;dropTarget=0;fillColor=none;points=[[0,0.5],[1,0.5]];portConstraint=eastwest;fontSize=16;" parent="s3AQ3x3ffBdiTEU-oynQ-357" vertex="1">
          <mxGeometry width="21" height="31" as="geometry" />
        </mxCell>
        <mxCell id="s3AQ3x3ffBdiTEU-oynQ-359" value="A" style="shape=partialRectangle;html=1;whiteSpace=wrap;connectable=0;strokeColor=inherit;overflow=hidden;fillColor=none;top=0;left=0;bottom=0;right=0;pointerEvents=1;fontSize=12;" parent="s3AQ3x3ffBdiTEU-oynQ-358" vertex="1">
          <mxGeometry width="21" height="31" as="geometry">
            <mxRectangle width="21" height="31" as="alternateBounds" />
          </mxGeometry>
        </mxCell>
        <mxCell id="s3AQ3x3ffBdiTEU-oynQ-360" style="shape=tableRow;horizontal=0;startSize=0;swimlaneHead=0;swimlaneBody=0;strokeColor=inherit;top=0;left=0;bottom=0;right=0;collapsible=0;dropTarget=0;fillColor=none;points=[[0,0.5],[1,0.5]];portConstraint=eastwest;fontSize=16;" parent="s3AQ3x3ffBdiTEU-oynQ-357" vertex="1">
          <mxGeometry y="31" width="21" height="31" as="geometry" />
        </mxCell>
        <mxCell id="s3AQ3x3ffBdiTEU-oynQ-361" value="C" style="shape=partialRectangle;html=1;whiteSpace=wrap;connectable=0;strokeColor=inherit;overflow=hidden;fillColor=none;top=0;left=0;bottom=0;right=0;pointerEvents=1;fontSize=12;" parent="s3AQ3x3ffBdiTEU-oynQ-360" vertex="1">
          <mxGeometry width="21" height="31" as="geometry">
            <mxRectangle width="21" height="31" as="alternateBounds" />
          </mxGeometry>
        </mxCell>
        <mxCell id="s3AQ3x3ffBdiTEU-oynQ-362" style="shape=tableRow;horizontal=0;startSize=0;swimlaneHead=0;swimlaneBody=0;strokeColor=inherit;top=0;left=0;bottom=0;right=0;collapsible=0;dropTarget=0;fillColor=none;points=[[0,0.5],[1,0.5]];portConstraint=eastwest;fontSize=16;" parent="s3AQ3x3ffBdiTEU-oynQ-357" vertex="1">
          <mxGeometry y="62" width="21" height="31" as="geometry" />
        </mxCell>
        <mxCell id="s3AQ3x3ffBdiTEU-oynQ-363" value="E" style="shape=partialRectangle;html=1;whiteSpace=wrap;connectable=0;strokeColor=inherit;overflow=hidden;fillColor=none;top=0;left=0;bottom=0;right=0;pointerEvents=1;fontSize=12;" parent="s3AQ3x3ffBdiTEU-oynQ-362" vertex="1">
          <mxGeometry width="21" height="31" as="geometry">
            <mxRectangle width="21" height="31" as="alternateBounds" />
          </mxGeometry>
        </mxCell>
        <mxCell id="s3AQ3x3ffBdiTEU-oynQ-364" style="shape=tableRow;horizontal=0;startSize=0;swimlaneHead=0;swimlaneBody=0;strokeColor=inherit;top=0;left=0;bottom=0;right=0;collapsible=0;dropTarget=0;fillColor=none;points=[[0,0.5],[1,0.5]];portConstraint=eastwest;fontSize=16;" parent="s3AQ3x3ffBdiTEU-oynQ-357" vertex="1">
          <mxGeometry y="93" width="21" height="31" as="geometry" />
        </mxCell>
        <mxCell id="s3AQ3x3ffBdiTEU-oynQ-365" style="shape=partialRectangle;html=1;whiteSpace=wrap;connectable=0;strokeColor=inherit;overflow=hidden;fillColor=none;top=0;left=0;bottom=0;right=0;pointerEvents=1;fontSize=12;" parent="s3AQ3x3ffBdiTEU-oynQ-364" vertex="1">
          <mxGeometry width="21" height="31" as="geometry">
            <mxRectangle width="21" height="31" as="alternateBounds" />
          </mxGeometry>
        </mxCell>
        <mxCell id="s3AQ3x3ffBdiTEU-oynQ-366" style="shape=tableRow;horizontal=0;startSize=0;swimlaneHead=0;swimlaneBody=0;strokeColor=inherit;top=0;left=0;bottom=0;right=0;collapsible=0;dropTarget=0;fillColor=none;points=[[0,0.5],[1,0.5]];portConstraint=eastwest;fontSize=16;" parent="s3AQ3x3ffBdiTEU-oynQ-357" vertex="1">
          <mxGeometry y="124" width="21" height="31" as="geometry" />
        </mxCell>
        <mxCell id="s3AQ3x3ffBdiTEU-oynQ-367" style="shape=partialRectangle;html=1;whiteSpace=wrap;connectable=0;strokeColor=inherit;overflow=hidden;fillColor=none;top=0;left=0;bottom=0;right=0;pointerEvents=1;fontSize=12;" parent="s3AQ3x3ffBdiTEU-oynQ-366" vertex="1">
          <mxGeometry width="21" height="31" as="geometry">
            <mxRectangle width="21" height="31" as="alternateBounds" />
          </mxGeometry>
        </mxCell>
        <mxCell id="s3AQ3x3ffBdiTEU-oynQ-368" style="shape=tableRow;horizontal=0;startSize=0;swimlaneHead=0;swimlaneBody=0;strokeColor=inherit;top=0;left=0;bottom=0;right=0;collapsible=0;dropTarget=0;fillColor=none;points=[[0,0.5],[1,0.5]];portConstraint=eastwest;fontSize=16;" parent="s3AQ3x3ffBdiTEU-oynQ-357" vertex="1">
          <mxGeometry y="155" width="21" height="31" as="geometry" />
        </mxCell>
        <mxCell id="s3AQ3x3ffBdiTEU-oynQ-369" style="shape=partialRectangle;html=1;whiteSpace=wrap;connectable=0;strokeColor=inherit;overflow=hidden;fillColor=none;top=0;left=0;bottom=0;right=0;pointerEvents=1;fontSize=12;" parent="s3AQ3x3ffBdiTEU-oynQ-368" vertex="1">
          <mxGeometry width="21" height="31" as="geometry">
            <mxRectangle width="21" height="31" as="alternateBounds" />
          </mxGeometry>
        </mxCell>
        <mxCell id="s3AQ3x3ffBdiTEU-oynQ-370" value="" style="shape=table;startSize=0;container=1;collapsible=0;childLayout=tableLayout;fontSize=9;" parent="1" vertex="1">
          <mxGeometry x="309.5" y="335" width="21" height="186" as="geometry" />
        </mxCell>
        <mxCell id="s3AQ3x3ffBdiTEU-oynQ-371" value="" style="shape=tableRow;horizontal=0;startSize=0;swimlaneHead=0;swimlaneBody=0;strokeColor=inherit;top=0;left=0;bottom=0;right=0;collapsible=0;dropTarget=0;fillColor=none;points=[[0,0.5],[1,0.5]];portConstraint=eastwest;fontSize=16;" parent="s3AQ3x3ffBdiTEU-oynQ-370" vertex="1">
          <mxGeometry width="21" height="31" as="geometry" />
        </mxCell>
        <mxCell id="s3AQ3x3ffBdiTEU-oynQ-372" value="A" style="shape=partialRectangle;html=1;whiteSpace=wrap;connectable=0;strokeColor=inherit;overflow=hidden;fillColor=none;top=0;left=0;bottom=0;right=0;pointerEvents=1;fontSize=12;" parent="s3AQ3x3ffBdiTEU-oynQ-371" vertex="1">
          <mxGeometry width="21" height="31" as="geometry">
            <mxRectangle width="21" height="31" as="alternateBounds" />
          </mxGeometry>
        </mxCell>
        <mxCell id="s3AQ3x3ffBdiTEU-oynQ-373" style="shape=tableRow;horizontal=0;startSize=0;swimlaneHead=0;swimlaneBody=0;strokeColor=inherit;top=0;left=0;bottom=0;right=0;collapsible=0;dropTarget=0;fillColor=none;points=[[0,0.5],[1,0.5]];portConstraint=eastwest;fontSize=16;" parent="s3AQ3x3ffBdiTEU-oynQ-370" vertex="1">
          <mxGeometry y="31" width="21" height="31" as="geometry" />
        </mxCell>
        <mxCell id="s3AQ3x3ffBdiTEU-oynQ-374" value="C" style="shape=partialRectangle;html=1;whiteSpace=wrap;connectable=0;strokeColor=inherit;overflow=hidden;fillColor=none;top=0;left=0;bottom=0;right=0;pointerEvents=1;fontSize=12;" parent="s3AQ3x3ffBdiTEU-oynQ-373" vertex="1">
          <mxGeometry width="21" height="31" as="geometry">
            <mxRectangle width="21" height="31" as="alternateBounds" />
          </mxGeometry>
        </mxCell>
        <mxCell id="s3AQ3x3ffBdiTEU-oynQ-375" style="shape=tableRow;horizontal=0;startSize=0;swimlaneHead=0;swimlaneBody=0;strokeColor=inherit;top=0;left=0;bottom=0;right=0;collapsible=0;dropTarget=0;fillColor=none;points=[[0,0.5],[1,0.5]];portConstraint=eastwest;fontSize=16;" parent="s3AQ3x3ffBdiTEU-oynQ-370" vertex="1">
          <mxGeometry y="62" width="21" height="31" as="geometry" />
        </mxCell>
        <mxCell id="s3AQ3x3ffBdiTEU-oynQ-376" value="E" style="shape=partialRectangle;html=1;whiteSpace=wrap;connectable=0;strokeColor=inherit;overflow=hidden;fillColor=none;top=0;left=0;bottom=0;right=0;pointerEvents=1;fontSize=12;" parent="s3AQ3x3ffBdiTEU-oynQ-375" vertex="1">
          <mxGeometry width="21" height="31" as="geometry">
            <mxRectangle width="21" height="31" as="alternateBounds" />
          </mxGeometry>
        </mxCell>
        <mxCell id="s3AQ3x3ffBdiTEU-oynQ-377" style="shape=tableRow;horizontal=0;startSize=0;swimlaneHead=0;swimlaneBody=0;strokeColor=inherit;top=0;left=0;bottom=0;right=0;collapsible=0;dropTarget=0;fillColor=none;points=[[0,0.5],[1,0.5]];portConstraint=eastwest;fontSize=16;" parent="s3AQ3x3ffBdiTEU-oynQ-370" vertex="1">
          <mxGeometry y="93" width="21" height="31" as="geometry" />
        </mxCell>
        <mxCell id="s3AQ3x3ffBdiTEU-oynQ-378" style="shape=partialRectangle;html=1;whiteSpace=wrap;connectable=0;strokeColor=inherit;overflow=hidden;fillColor=none;top=0;left=0;bottom=0;right=0;pointerEvents=1;fontSize=12;" parent="s3AQ3x3ffBdiTEU-oynQ-377" vertex="1">
          <mxGeometry width="21" height="31" as="geometry">
            <mxRectangle width="21" height="31" as="alternateBounds" />
          </mxGeometry>
        </mxCell>
        <mxCell id="s3AQ3x3ffBdiTEU-oynQ-379" style="shape=tableRow;horizontal=0;startSize=0;swimlaneHead=0;swimlaneBody=0;strokeColor=inherit;top=0;left=0;bottom=0;right=0;collapsible=0;dropTarget=0;fillColor=none;points=[[0,0.5],[1,0.5]];portConstraint=eastwest;fontSize=16;" parent="s3AQ3x3ffBdiTEU-oynQ-370" vertex="1">
          <mxGeometry y="124" width="21" height="31" as="geometry" />
        </mxCell>
        <mxCell id="s3AQ3x3ffBdiTEU-oynQ-380" style="shape=partialRectangle;html=1;whiteSpace=wrap;connectable=0;strokeColor=inherit;overflow=hidden;fillColor=none;top=0;left=0;bottom=0;right=0;pointerEvents=1;fontSize=12;" parent="s3AQ3x3ffBdiTEU-oynQ-379" vertex="1">
          <mxGeometry width="21" height="31" as="geometry">
            <mxRectangle width="21" height="31" as="alternateBounds" />
          </mxGeometry>
        </mxCell>
        <mxCell id="s3AQ3x3ffBdiTEU-oynQ-381" style="shape=tableRow;horizontal=0;startSize=0;swimlaneHead=0;swimlaneBody=0;strokeColor=inherit;top=0;left=0;bottom=0;right=0;collapsible=0;dropTarget=0;fillColor=none;points=[[0,0.5],[1,0.5]];portConstraint=eastwest;fontSize=16;" parent="s3AQ3x3ffBdiTEU-oynQ-370" vertex="1">
          <mxGeometry y="155" width="21" height="31" as="geometry" />
        </mxCell>
        <mxCell id="s3AQ3x3ffBdiTEU-oynQ-382" style="shape=partialRectangle;html=1;whiteSpace=wrap;connectable=0;strokeColor=inherit;overflow=hidden;fillColor=none;top=0;left=0;bottom=0;right=0;pointerEvents=1;fontSize=12;" parent="s3AQ3x3ffBdiTEU-oynQ-381" vertex="1">
          <mxGeometry width="21" height="31" as="geometry">
            <mxRectangle width="21" height="31" as="alternateBounds" />
          </mxGeometry>
        </mxCell>
        <mxCell id="s3AQ3x3ffBdiTEU-oynQ-383" value="" style="shape=table;startSize=0;container=1;collapsible=0;childLayout=tableLayout;fontSize=9;" parent="1" vertex="1">
          <mxGeometry x="349.5" y="335" width="21" height="186" as="geometry" />
        </mxCell>
        <mxCell id="s3AQ3x3ffBdiTEU-oynQ-384" value="" style="shape=tableRow;horizontal=0;startSize=0;swimlaneHead=0;swimlaneBody=0;strokeColor=inherit;top=0;left=0;bottom=0;right=0;collapsible=0;dropTarget=0;fillColor=none;points=[[0,0.5],[1,0.5]];portConstraint=eastwest;fontSize=16;" parent="s3AQ3x3ffBdiTEU-oynQ-383" vertex="1">
          <mxGeometry width="21" height="31" as="geometry" />
        </mxCell>
        <mxCell id="s3AQ3x3ffBdiTEU-oynQ-385" value="A" style="shape=partialRectangle;html=1;whiteSpace=wrap;connectable=0;strokeColor=inherit;overflow=hidden;fillColor=none;top=0;left=0;bottom=0;right=0;pointerEvents=1;fontSize=12;" parent="s3AQ3x3ffBdiTEU-oynQ-384" vertex="1">
          <mxGeometry width="21" height="31" as="geometry">
            <mxRectangle width="21" height="31" as="alternateBounds" />
          </mxGeometry>
        </mxCell>
        <mxCell id="s3AQ3x3ffBdiTEU-oynQ-386" style="shape=tableRow;horizontal=0;startSize=0;swimlaneHead=0;swimlaneBody=0;strokeColor=inherit;top=0;left=0;bottom=0;right=0;collapsible=0;dropTarget=0;fillColor=none;points=[[0,0.5],[1,0.5]];portConstraint=eastwest;fontSize=16;" parent="s3AQ3x3ffBdiTEU-oynQ-383" vertex="1">
          <mxGeometry y="31" width="21" height="31" as="geometry" />
        </mxCell>
        <mxCell id="s3AQ3x3ffBdiTEU-oynQ-387" value="C" style="shape=partialRectangle;html=1;whiteSpace=wrap;connectable=0;strokeColor=inherit;overflow=hidden;fillColor=none;top=0;left=0;bottom=0;right=0;pointerEvents=1;fontSize=12;" parent="s3AQ3x3ffBdiTEU-oynQ-386" vertex="1">
          <mxGeometry width="21" height="31" as="geometry">
            <mxRectangle width="21" height="31" as="alternateBounds" />
          </mxGeometry>
        </mxCell>
        <mxCell id="s3AQ3x3ffBdiTEU-oynQ-388" style="shape=tableRow;horizontal=0;startSize=0;swimlaneHead=0;swimlaneBody=0;strokeColor=inherit;top=0;left=0;bottom=0;right=0;collapsible=0;dropTarget=0;fillColor=none;points=[[0,0.5],[1,0.5]];portConstraint=eastwest;fontSize=16;" parent="s3AQ3x3ffBdiTEU-oynQ-383" vertex="1">
          <mxGeometry y="62" width="21" height="31" as="geometry" />
        </mxCell>
        <mxCell id="s3AQ3x3ffBdiTEU-oynQ-389" value="E" style="shape=partialRectangle;html=1;whiteSpace=wrap;connectable=0;strokeColor=inherit;overflow=hidden;fillColor=none;top=0;left=0;bottom=0;right=0;pointerEvents=1;fontSize=12;" parent="s3AQ3x3ffBdiTEU-oynQ-388" vertex="1">
          <mxGeometry width="21" height="31" as="geometry">
            <mxRectangle width="21" height="31" as="alternateBounds" />
          </mxGeometry>
        </mxCell>
        <mxCell id="s3AQ3x3ffBdiTEU-oynQ-390" style="shape=tableRow;horizontal=0;startSize=0;swimlaneHead=0;swimlaneBody=0;strokeColor=inherit;top=0;left=0;bottom=0;right=0;collapsible=0;dropTarget=0;fillColor=none;points=[[0,0.5],[1,0.5]];portConstraint=eastwest;fontSize=16;" parent="s3AQ3x3ffBdiTEU-oynQ-383" vertex="1">
          <mxGeometry y="93" width="21" height="31" as="geometry" />
        </mxCell>
        <mxCell id="s3AQ3x3ffBdiTEU-oynQ-391" value="F" style="shape=partialRectangle;html=1;whiteSpace=wrap;connectable=0;strokeColor=inherit;overflow=hidden;fillColor=none;top=0;left=0;bottom=0;right=0;pointerEvents=1;fontSize=12;" parent="s3AQ3x3ffBdiTEU-oynQ-390" vertex="1">
          <mxGeometry width="21" height="31" as="geometry">
            <mxRectangle width="21" height="31" as="alternateBounds" />
          </mxGeometry>
        </mxCell>
        <mxCell id="s3AQ3x3ffBdiTEU-oynQ-392" style="shape=tableRow;horizontal=0;startSize=0;swimlaneHead=0;swimlaneBody=0;strokeColor=inherit;top=0;left=0;bottom=0;right=0;collapsible=0;dropTarget=0;fillColor=none;points=[[0,0.5],[1,0.5]];portConstraint=eastwest;fontSize=16;" parent="s3AQ3x3ffBdiTEU-oynQ-383" vertex="1">
          <mxGeometry y="124" width="21" height="31" as="geometry" />
        </mxCell>
        <mxCell id="s3AQ3x3ffBdiTEU-oynQ-393" style="shape=partialRectangle;html=1;whiteSpace=wrap;connectable=0;strokeColor=inherit;overflow=hidden;fillColor=none;top=0;left=0;bottom=0;right=0;pointerEvents=1;fontSize=12;" parent="s3AQ3x3ffBdiTEU-oynQ-392" vertex="1">
          <mxGeometry width="21" height="31" as="geometry">
            <mxRectangle width="21" height="31" as="alternateBounds" />
          </mxGeometry>
        </mxCell>
        <mxCell id="s3AQ3x3ffBdiTEU-oynQ-394" style="shape=tableRow;horizontal=0;startSize=0;swimlaneHead=0;swimlaneBody=0;strokeColor=inherit;top=0;left=0;bottom=0;right=0;collapsible=0;dropTarget=0;fillColor=none;points=[[0,0.5],[1,0.5]];portConstraint=eastwest;fontSize=16;" parent="s3AQ3x3ffBdiTEU-oynQ-383" vertex="1">
          <mxGeometry y="155" width="21" height="31" as="geometry" />
        </mxCell>
        <mxCell id="s3AQ3x3ffBdiTEU-oynQ-395" style="shape=partialRectangle;html=1;whiteSpace=wrap;connectable=0;strokeColor=inherit;overflow=hidden;fillColor=none;top=0;left=0;bottom=0;right=0;pointerEvents=1;fontSize=12;" parent="s3AQ3x3ffBdiTEU-oynQ-394" vertex="1">
          <mxGeometry width="21" height="31" as="geometry">
            <mxRectangle width="21" height="31" as="alternateBounds" />
          </mxGeometry>
        </mxCell>
        <mxCell id="s3AQ3x3ffBdiTEU-oynQ-397" value="" style="shape=table;startSize=0;container=1;collapsible=0;childLayout=tableLayout;fontSize=9;" parent="1" vertex="1">
          <mxGeometry x="389.5" y="335" width="21" height="186" as="geometry" />
        </mxCell>
        <mxCell id="s3AQ3x3ffBdiTEU-oynQ-398" value="" style="shape=tableRow;horizontal=0;startSize=0;swimlaneHead=0;swimlaneBody=0;strokeColor=inherit;top=0;left=0;bottom=0;right=0;collapsible=0;dropTarget=0;fillColor=none;points=[[0,0.5],[1,0.5]];portConstraint=eastwest;fontSize=16;" parent="s3AQ3x3ffBdiTEU-oynQ-397" vertex="1">
          <mxGeometry width="21" height="31" as="geometry" />
        </mxCell>
        <mxCell id="s3AQ3x3ffBdiTEU-oynQ-399" value="A" style="shape=partialRectangle;html=1;whiteSpace=wrap;connectable=0;strokeColor=inherit;overflow=hidden;fillColor=none;top=0;left=0;bottom=0;right=0;pointerEvents=1;fontSize=12;" parent="s3AQ3x3ffBdiTEU-oynQ-398" vertex="1">
          <mxGeometry width="21" height="31" as="geometry">
            <mxRectangle width="21" height="31" as="alternateBounds" />
          </mxGeometry>
        </mxCell>
        <mxCell id="s3AQ3x3ffBdiTEU-oynQ-400" style="shape=tableRow;horizontal=0;startSize=0;swimlaneHead=0;swimlaneBody=0;strokeColor=inherit;top=0;left=0;bottom=0;right=0;collapsible=0;dropTarget=0;fillColor=none;points=[[0,0.5],[1,0.5]];portConstraint=eastwest;fontSize=16;" parent="s3AQ3x3ffBdiTEU-oynQ-397" vertex="1">
          <mxGeometry y="31" width="21" height="31" as="geometry" />
        </mxCell>
        <mxCell id="s3AQ3x3ffBdiTEU-oynQ-401" value="C" style="shape=partialRectangle;html=1;whiteSpace=wrap;connectable=0;strokeColor=inherit;overflow=hidden;fillColor=none;top=0;left=0;bottom=0;right=0;pointerEvents=1;fontSize=12;" parent="s3AQ3x3ffBdiTEU-oynQ-400" vertex="1">
          <mxGeometry width="21" height="31" as="geometry">
            <mxRectangle width="21" height="31" as="alternateBounds" />
          </mxGeometry>
        </mxCell>
        <mxCell id="s3AQ3x3ffBdiTEU-oynQ-402" style="shape=tableRow;horizontal=0;startSize=0;swimlaneHead=0;swimlaneBody=0;strokeColor=inherit;top=0;left=0;bottom=0;right=0;collapsible=0;dropTarget=0;fillColor=none;points=[[0,0.5],[1,0.5]];portConstraint=eastwest;fontSize=16;" parent="s3AQ3x3ffBdiTEU-oynQ-397" vertex="1">
          <mxGeometry y="62" width="21" height="31" as="geometry" />
        </mxCell>
        <mxCell id="s3AQ3x3ffBdiTEU-oynQ-403" value="E" style="shape=partialRectangle;html=1;whiteSpace=wrap;connectable=0;strokeColor=inherit;overflow=hidden;fillColor=none;top=0;left=0;bottom=0;right=0;pointerEvents=1;fontSize=12;" parent="s3AQ3x3ffBdiTEU-oynQ-402" vertex="1">
          <mxGeometry width="21" height="31" as="geometry">
            <mxRectangle width="21" height="31" as="alternateBounds" />
          </mxGeometry>
        </mxCell>
        <mxCell id="s3AQ3x3ffBdiTEU-oynQ-404" style="shape=tableRow;horizontal=0;startSize=0;swimlaneHead=0;swimlaneBody=0;strokeColor=inherit;top=0;left=0;bottom=0;right=0;collapsible=0;dropTarget=0;fillColor=none;points=[[0,0.5],[1,0.5]];portConstraint=eastwest;fontSize=16;" parent="s3AQ3x3ffBdiTEU-oynQ-397" vertex="1">
          <mxGeometry y="93" width="21" height="31" as="geometry" />
        </mxCell>
        <mxCell id="s3AQ3x3ffBdiTEU-oynQ-405" value="F" style="shape=partialRectangle;html=1;whiteSpace=wrap;connectable=0;strokeColor=inherit;overflow=hidden;fillColor=none;top=0;left=0;bottom=0;right=0;pointerEvents=1;fontSize=12;" parent="s3AQ3x3ffBdiTEU-oynQ-404" vertex="1">
          <mxGeometry width="21" height="31" as="geometry">
            <mxRectangle width="21" height="31" as="alternateBounds" />
          </mxGeometry>
        </mxCell>
        <mxCell id="s3AQ3x3ffBdiTEU-oynQ-406" style="shape=tableRow;horizontal=0;startSize=0;swimlaneHead=0;swimlaneBody=0;strokeColor=inherit;top=0;left=0;bottom=0;right=0;collapsible=0;dropTarget=0;fillColor=none;points=[[0,0.5],[1,0.5]];portConstraint=eastwest;fontSize=16;" parent="s3AQ3x3ffBdiTEU-oynQ-397" vertex="1">
          <mxGeometry y="124" width="21" height="31" as="geometry" />
        </mxCell>
        <mxCell id="s3AQ3x3ffBdiTEU-oynQ-407" style="shape=partialRectangle;html=1;whiteSpace=wrap;connectable=0;strokeColor=inherit;overflow=hidden;fillColor=none;top=0;left=0;bottom=0;right=0;pointerEvents=1;fontSize=12;" parent="s3AQ3x3ffBdiTEU-oynQ-406" vertex="1">
          <mxGeometry width="21" height="31" as="geometry">
            <mxRectangle width="21" height="31" as="alternateBounds" />
          </mxGeometry>
        </mxCell>
        <mxCell id="s3AQ3x3ffBdiTEU-oynQ-408" style="shape=tableRow;horizontal=0;startSize=0;swimlaneHead=0;swimlaneBody=0;strokeColor=inherit;top=0;left=0;bottom=0;right=0;collapsible=0;dropTarget=0;fillColor=none;points=[[0,0.5],[1,0.5]];portConstraint=eastwest;fontSize=16;" parent="s3AQ3x3ffBdiTEU-oynQ-397" vertex="1">
          <mxGeometry y="155" width="21" height="31" as="geometry" />
        </mxCell>
        <mxCell id="s3AQ3x3ffBdiTEU-oynQ-409" style="shape=partialRectangle;html=1;whiteSpace=wrap;connectable=0;strokeColor=inherit;overflow=hidden;fillColor=none;top=0;left=0;bottom=0;right=0;pointerEvents=1;fontSize=12;" parent="s3AQ3x3ffBdiTEU-oynQ-408" vertex="1">
          <mxGeometry width="21" height="31" as="geometry">
            <mxRectangle width="21" height="31" as="alternateBounds" />
          </mxGeometry>
        </mxCell>
        <mxCell id="s3AQ3x3ffBdiTEU-oynQ-410" value="" style="shape=table;startSize=0;container=1;collapsible=0;childLayout=tableLayout;fontSize=9;" parent="1" vertex="1">
          <mxGeometry x="419.5" y="335" width="21" height="186" as="geometry" />
        </mxCell>
        <mxCell id="s3AQ3x3ffBdiTEU-oynQ-411" value="" style="shape=tableRow;horizontal=0;startSize=0;swimlaneHead=0;swimlaneBody=0;strokeColor=inherit;top=0;left=0;bottom=0;right=0;collapsible=0;dropTarget=0;fillColor=none;points=[[0,0.5],[1,0.5]];portConstraint=eastwest;fontSize=16;" parent="s3AQ3x3ffBdiTEU-oynQ-410" vertex="1">
          <mxGeometry width="21" height="31" as="geometry" />
        </mxCell>
        <mxCell id="s3AQ3x3ffBdiTEU-oynQ-412" value="A" style="shape=partialRectangle;html=1;whiteSpace=wrap;connectable=0;strokeColor=inherit;overflow=hidden;fillColor=none;top=0;left=0;bottom=0;right=0;pointerEvents=1;fontSize=12;" parent="s3AQ3x3ffBdiTEU-oynQ-411" vertex="1">
          <mxGeometry width="21" height="31" as="geometry">
            <mxRectangle width="21" height="31" as="alternateBounds" />
          </mxGeometry>
        </mxCell>
        <mxCell id="s3AQ3x3ffBdiTEU-oynQ-413" style="shape=tableRow;horizontal=0;startSize=0;swimlaneHead=0;swimlaneBody=0;strokeColor=inherit;top=0;left=0;bottom=0;right=0;collapsible=0;dropTarget=0;fillColor=none;points=[[0,0.5],[1,0.5]];portConstraint=eastwest;fontSize=16;" parent="s3AQ3x3ffBdiTEU-oynQ-410" vertex="1">
          <mxGeometry y="31" width="21" height="31" as="geometry" />
        </mxCell>
        <mxCell id="s3AQ3x3ffBdiTEU-oynQ-414" value="C" style="shape=partialRectangle;html=1;whiteSpace=wrap;connectable=0;strokeColor=inherit;overflow=hidden;fillColor=none;top=0;left=0;bottom=0;right=0;pointerEvents=1;fontSize=12;" parent="s3AQ3x3ffBdiTEU-oynQ-413" vertex="1">
          <mxGeometry width="21" height="31" as="geometry">
            <mxRectangle width="21" height="31" as="alternateBounds" />
          </mxGeometry>
        </mxCell>
        <mxCell id="s3AQ3x3ffBdiTEU-oynQ-415" style="shape=tableRow;horizontal=0;startSize=0;swimlaneHead=0;swimlaneBody=0;strokeColor=inherit;top=0;left=0;bottom=0;right=0;collapsible=0;dropTarget=0;fillColor=none;points=[[0,0.5],[1,0.5]];portConstraint=eastwest;fontSize=16;" parent="s3AQ3x3ffBdiTEU-oynQ-410" vertex="1">
          <mxGeometry y="62" width="21" height="31" as="geometry" />
        </mxCell>
        <mxCell id="s3AQ3x3ffBdiTEU-oynQ-416" value="E" style="shape=partialRectangle;html=1;whiteSpace=wrap;connectable=0;strokeColor=inherit;overflow=hidden;fillColor=none;top=0;left=0;bottom=0;right=0;pointerEvents=1;fontSize=12;" parent="s3AQ3x3ffBdiTEU-oynQ-415" vertex="1">
          <mxGeometry width="21" height="31" as="geometry">
            <mxRectangle width="21" height="31" as="alternateBounds" />
          </mxGeometry>
        </mxCell>
        <mxCell id="s3AQ3x3ffBdiTEU-oynQ-417" style="shape=tableRow;horizontal=0;startSize=0;swimlaneHead=0;swimlaneBody=0;strokeColor=inherit;top=0;left=0;bottom=0;right=0;collapsible=0;dropTarget=0;fillColor=none;points=[[0,0.5],[1,0.5]];portConstraint=eastwest;fontSize=16;" parent="s3AQ3x3ffBdiTEU-oynQ-410" vertex="1">
          <mxGeometry y="93" width="21" height="31" as="geometry" />
        </mxCell>
        <mxCell id="s3AQ3x3ffBdiTEU-oynQ-418" value="F" style="shape=partialRectangle;html=1;whiteSpace=wrap;connectable=0;strokeColor=inherit;overflow=hidden;fillColor=none;top=0;left=0;bottom=0;right=0;pointerEvents=1;fontSize=12;" parent="s3AQ3x3ffBdiTEU-oynQ-417" vertex="1">
          <mxGeometry width="21" height="31" as="geometry">
            <mxRectangle width="21" height="31" as="alternateBounds" />
          </mxGeometry>
        </mxCell>
        <mxCell id="s3AQ3x3ffBdiTEU-oynQ-419" style="shape=tableRow;horizontal=0;startSize=0;swimlaneHead=0;swimlaneBody=0;strokeColor=inherit;top=0;left=0;bottom=0;right=0;collapsible=0;dropTarget=0;fillColor=none;points=[[0,0.5],[1,0.5]];portConstraint=eastwest;fontSize=16;" parent="s3AQ3x3ffBdiTEU-oynQ-410" vertex="1">
          <mxGeometry y="124" width="21" height="31" as="geometry" />
        </mxCell>
        <mxCell id="s3AQ3x3ffBdiTEU-oynQ-420" value="G1" style="shape=partialRectangle;html=1;whiteSpace=wrap;connectable=0;strokeColor=inherit;overflow=hidden;fillColor=none;top=0;left=0;bottom=0;right=0;pointerEvents=1;fontSize=12;" parent="s3AQ3x3ffBdiTEU-oynQ-419" vertex="1">
          <mxGeometry width="21" height="31" as="geometry">
            <mxRectangle width="21" height="31" as="alternateBounds" />
          </mxGeometry>
        </mxCell>
        <mxCell id="s3AQ3x3ffBdiTEU-oynQ-421" style="shape=tableRow;horizontal=0;startSize=0;swimlaneHead=0;swimlaneBody=0;strokeColor=inherit;top=0;left=0;bottom=0;right=0;collapsible=0;dropTarget=0;fillColor=none;points=[[0,0.5],[1,0.5]];portConstraint=eastwest;fontSize=16;" parent="s3AQ3x3ffBdiTEU-oynQ-410" vertex="1">
          <mxGeometry y="155" width="21" height="31" as="geometry" />
        </mxCell>
        <mxCell id="s3AQ3x3ffBdiTEU-oynQ-422" style="shape=partialRectangle;html=1;whiteSpace=wrap;connectable=0;strokeColor=inherit;overflow=hidden;fillColor=none;top=0;left=0;bottom=0;right=0;pointerEvents=1;fontSize=12;" parent="s3AQ3x3ffBdiTEU-oynQ-421" vertex="1">
          <mxGeometry width="21" height="31" as="geometry">
            <mxRectangle width="21" height="31" as="alternateBounds" />
          </mxGeometry>
        </mxCell>
        <mxCell id="s3AQ3x3ffBdiTEU-oynQ-423" value="" style="shape=table;startSize=0;container=1;collapsible=0;childLayout=tableLayout;fontSize=9;" parent="1" vertex="1">
          <mxGeometry x="440.5" y="335" width="21" height="186" as="geometry" />
        </mxCell>
        <mxCell id="s3AQ3x3ffBdiTEU-oynQ-424" value="" style="shape=tableRow;horizontal=0;startSize=0;swimlaneHead=0;swimlaneBody=0;strokeColor=inherit;top=0;left=0;bottom=0;right=0;collapsible=0;dropTarget=0;fillColor=none;points=[[0,0.5],[1,0.5]];portConstraint=eastwest;fontSize=16;" parent="s3AQ3x3ffBdiTEU-oynQ-423" vertex="1">
          <mxGeometry width="21" height="31" as="geometry" />
        </mxCell>
        <mxCell id="s3AQ3x3ffBdiTEU-oynQ-425" value="A" style="shape=partialRectangle;html=1;whiteSpace=wrap;connectable=0;strokeColor=inherit;overflow=hidden;fillColor=none;top=0;left=0;bottom=0;right=0;pointerEvents=1;fontSize=12;" parent="s3AQ3x3ffBdiTEU-oynQ-424" vertex="1">
          <mxGeometry width="21" height="31" as="geometry">
            <mxRectangle width="21" height="31" as="alternateBounds" />
          </mxGeometry>
        </mxCell>
        <mxCell id="s3AQ3x3ffBdiTEU-oynQ-426" style="shape=tableRow;horizontal=0;startSize=0;swimlaneHead=0;swimlaneBody=0;strokeColor=inherit;top=0;left=0;bottom=0;right=0;collapsible=0;dropTarget=0;fillColor=none;points=[[0,0.5],[1,0.5]];portConstraint=eastwest;fontSize=16;" parent="s3AQ3x3ffBdiTEU-oynQ-423" vertex="1">
          <mxGeometry y="31" width="21" height="31" as="geometry" />
        </mxCell>
        <mxCell id="s3AQ3x3ffBdiTEU-oynQ-427" value="C" style="shape=partialRectangle;html=1;whiteSpace=wrap;connectable=0;strokeColor=inherit;overflow=hidden;fillColor=none;top=0;left=0;bottom=0;right=0;pointerEvents=1;fontSize=12;" parent="s3AQ3x3ffBdiTEU-oynQ-426" vertex="1">
          <mxGeometry width="21" height="31" as="geometry">
            <mxRectangle width="21" height="31" as="alternateBounds" />
          </mxGeometry>
        </mxCell>
        <mxCell id="s3AQ3x3ffBdiTEU-oynQ-428" style="shape=tableRow;horizontal=0;startSize=0;swimlaneHead=0;swimlaneBody=0;strokeColor=inherit;top=0;left=0;bottom=0;right=0;collapsible=0;dropTarget=0;fillColor=none;points=[[0,0.5],[1,0.5]];portConstraint=eastwest;fontSize=16;" parent="s3AQ3x3ffBdiTEU-oynQ-423" vertex="1">
          <mxGeometry y="62" width="21" height="31" as="geometry" />
        </mxCell>
        <mxCell id="s3AQ3x3ffBdiTEU-oynQ-429" value="E" style="shape=partialRectangle;html=1;whiteSpace=wrap;connectable=0;strokeColor=inherit;overflow=hidden;fillColor=none;top=0;left=0;bottom=0;right=0;pointerEvents=1;fontSize=12;" parent="s3AQ3x3ffBdiTEU-oynQ-428" vertex="1">
          <mxGeometry width="21" height="31" as="geometry">
            <mxRectangle width="21" height="31" as="alternateBounds" />
          </mxGeometry>
        </mxCell>
        <mxCell id="s3AQ3x3ffBdiTEU-oynQ-430" style="shape=tableRow;horizontal=0;startSize=0;swimlaneHead=0;swimlaneBody=0;strokeColor=inherit;top=0;left=0;bottom=0;right=0;collapsible=0;dropTarget=0;fillColor=none;points=[[0,0.5],[1,0.5]];portConstraint=eastwest;fontSize=16;" parent="s3AQ3x3ffBdiTEU-oynQ-423" vertex="1">
          <mxGeometry y="93" width="21" height="31" as="geometry" />
        </mxCell>
        <mxCell id="s3AQ3x3ffBdiTEU-oynQ-431" value="F" style="shape=partialRectangle;html=1;whiteSpace=wrap;connectable=0;strokeColor=inherit;overflow=hidden;fillColor=none;top=0;left=0;bottom=0;right=0;pointerEvents=1;fontSize=12;" parent="s3AQ3x3ffBdiTEU-oynQ-430" vertex="1">
          <mxGeometry width="21" height="31" as="geometry">
            <mxRectangle width="21" height="31" as="alternateBounds" />
          </mxGeometry>
        </mxCell>
        <mxCell id="s3AQ3x3ffBdiTEU-oynQ-432" style="shape=tableRow;horizontal=0;startSize=0;swimlaneHead=0;swimlaneBody=0;strokeColor=inherit;top=0;left=0;bottom=0;right=0;collapsible=0;dropTarget=0;fillColor=none;points=[[0,0.5],[1,0.5]];portConstraint=eastwest;fontSize=16;" parent="s3AQ3x3ffBdiTEU-oynQ-423" vertex="1">
          <mxGeometry y="124" width="21" height="31" as="geometry" />
        </mxCell>
        <mxCell id="s3AQ3x3ffBdiTEU-oynQ-433" value="G2" style="shape=partialRectangle;html=1;whiteSpace=wrap;connectable=0;strokeColor=inherit;overflow=hidden;fillColor=none;top=0;left=0;bottom=0;right=0;pointerEvents=1;fontSize=12;" parent="s3AQ3x3ffBdiTEU-oynQ-432" vertex="1">
          <mxGeometry width="21" height="31" as="geometry">
            <mxRectangle width="21" height="31" as="alternateBounds" />
          </mxGeometry>
        </mxCell>
        <mxCell id="s3AQ3x3ffBdiTEU-oynQ-434" style="shape=tableRow;horizontal=0;startSize=0;swimlaneHead=0;swimlaneBody=0;strokeColor=inherit;top=0;left=0;bottom=0;right=0;collapsible=0;dropTarget=0;fillColor=none;points=[[0,0.5],[1,0.5]];portConstraint=eastwest;fontSize=16;" parent="s3AQ3x3ffBdiTEU-oynQ-423" vertex="1">
          <mxGeometry y="155" width="21" height="31" as="geometry" />
        </mxCell>
        <mxCell id="s3AQ3x3ffBdiTEU-oynQ-435" style="shape=partialRectangle;html=1;whiteSpace=wrap;connectable=0;strokeColor=inherit;overflow=hidden;fillColor=none;top=0;left=0;bottom=0;right=0;pointerEvents=1;fontSize=12;" parent="s3AQ3x3ffBdiTEU-oynQ-434" vertex="1">
          <mxGeometry width="21" height="31" as="geometry">
            <mxRectangle width="21" height="31" as="alternateBounds" />
          </mxGeometry>
        </mxCell>
        <mxCell id="s3AQ3x3ffBdiTEU-oynQ-436" value="" style="shape=table;startSize=0;container=1;collapsible=0;childLayout=tableLayout;fontSize=9;" parent="1" vertex="1">
          <mxGeometry x="469.5" y="335" width="21" height="186" as="geometry" />
        </mxCell>
        <mxCell id="s3AQ3x3ffBdiTEU-oynQ-437" value="" style="shape=tableRow;horizontal=0;startSize=0;swimlaneHead=0;swimlaneBody=0;strokeColor=inherit;top=0;left=0;bottom=0;right=0;collapsible=0;dropTarget=0;fillColor=none;points=[[0,0.5],[1,0.5]];portConstraint=eastwest;fontSize=16;" parent="s3AQ3x3ffBdiTEU-oynQ-436" vertex="1">
          <mxGeometry width="21" height="31" as="geometry" />
        </mxCell>
        <mxCell id="s3AQ3x3ffBdiTEU-oynQ-438" value="A" style="shape=partialRectangle;html=1;whiteSpace=wrap;connectable=0;strokeColor=inherit;overflow=hidden;fillColor=none;top=0;left=0;bottom=0;right=0;pointerEvents=1;fontSize=12;" parent="s3AQ3x3ffBdiTEU-oynQ-437" vertex="1">
          <mxGeometry width="21" height="31" as="geometry">
            <mxRectangle width="21" height="31" as="alternateBounds" />
          </mxGeometry>
        </mxCell>
        <mxCell id="s3AQ3x3ffBdiTEU-oynQ-439" style="shape=tableRow;horizontal=0;startSize=0;swimlaneHead=0;swimlaneBody=0;strokeColor=inherit;top=0;left=0;bottom=0;right=0;collapsible=0;dropTarget=0;fillColor=none;points=[[0,0.5],[1,0.5]];portConstraint=eastwest;fontSize=16;" parent="s3AQ3x3ffBdiTEU-oynQ-436" vertex="1">
          <mxGeometry y="31" width="21" height="31" as="geometry" />
        </mxCell>
        <mxCell id="s3AQ3x3ffBdiTEU-oynQ-440" value="C" style="shape=partialRectangle;html=1;whiteSpace=wrap;connectable=0;strokeColor=inherit;overflow=hidden;fillColor=none;top=0;left=0;bottom=0;right=0;pointerEvents=1;fontSize=12;" parent="s3AQ3x3ffBdiTEU-oynQ-439" vertex="1">
          <mxGeometry width="21" height="31" as="geometry">
            <mxRectangle width="21" height="31" as="alternateBounds" />
          </mxGeometry>
        </mxCell>
        <mxCell id="s3AQ3x3ffBdiTEU-oynQ-441" style="shape=tableRow;horizontal=0;startSize=0;swimlaneHead=0;swimlaneBody=0;strokeColor=inherit;top=0;left=0;bottom=0;right=0;collapsible=0;dropTarget=0;fillColor=none;points=[[0,0.5],[1,0.5]];portConstraint=eastwest;fontSize=16;" parent="s3AQ3x3ffBdiTEU-oynQ-436" vertex="1">
          <mxGeometry y="62" width="21" height="31" as="geometry" />
        </mxCell>
        <mxCell id="s3AQ3x3ffBdiTEU-oynQ-442" value="E" style="shape=partialRectangle;html=1;whiteSpace=wrap;connectable=0;strokeColor=inherit;overflow=hidden;fillColor=none;top=0;left=0;bottom=0;right=0;pointerEvents=1;fontSize=12;" parent="s3AQ3x3ffBdiTEU-oynQ-441" vertex="1">
          <mxGeometry width="21" height="31" as="geometry">
            <mxRectangle width="21" height="31" as="alternateBounds" />
          </mxGeometry>
        </mxCell>
        <mxCell id="s3AQ3x3ffBdiTEU-oynQ-443" style="shape=tableRow;horizontal=0;startSize=0;swimlaneHead=0;swimlaneBody=0;strokeColor=inherit;top=0;left=0;bottom=0;right=0;collapsible=0;dropTarget=0;fillColor=none;points=[[0,0.5],[1,0.5]];portConstraint=eastwest;fontSize=16;" parent="s3AQ3x3ffBdiTEU-oynQ-436" vertex="1">
          <mxGeometry y="93" width="21" height="31" as="geometry" />
        </mxCell>
        <mxCell id="s3AQ3x3ffBdiTEU-oynQ-444" value="F" style="shape=partialRectangle;html=1;whiteSpace=wrap;connectable=0;strokeColor=inherit;overflow=hidden;fillColor=none;top=0;left=0;bottom=0;right=0;pointerEvents=1;fontSize=12;" parent="s3AQ3x3ffBdiTEU-oynQ-443" vertex="1">
          <mxGeometry width="21" height="31" as="geometry">
            <mxRectangle width="21" height="31" as="alternateBounds" />
          </mxGeometry>
        </mxCell>
        <mxCell id="s3AQ3x3ffBdiTEU-oynQ-445" style="shape=tableRow;horizontal=0;startSize=0;swimlaneHead=0;swimlaneBody=0;strokeColor=inherit;top=0;left=0;bottom=0;right=0;collapsible=0;dropTarget=0;fillColor=none;points=[[0,0.5],[1,0.5]];portConstraint=eastwest;fontSize=16;" parent="s3AQ3x3ffBdiTEU-oynQ-436" vertex="1">
          <mxGeometry y="124" width="21" height="31" as="geometry" />
        </mxCell>
        <mxCell id="s3AQ3x3ffBdiTEU-oynQ-446" value="G2" style="shape=partialRectangle;html=1;whiteSpace=wrap;connectable=0;strokeColor=inherit;overflow=hidden;fillColor=none;top=0;left=0;bottom=0;right=0;pointerEvents=1;fontSize=12;" parent="s3AQ3x3ffBdiTEU-oynQ-445" vertex="1">
          <mxGeometry width="21" height="31" as="geometry">
            <mxRectangle width="21" height="31" as="alternateBounds" />
          </mxGeometry>
        </mxCell>
        <mxCell id="s3AQ3x3ffBdiTEU-oynQ-447" style="shape=tableRow;horizontal=0;startSize=0;swimlaneHead=0;swimlaneBody=0;strokeColor=inherit;top=0;left=0;bottom=0;right=0;collapsible=0;dropTarget=0;fillColor=none;points=[[0,0.5],[1,0.5]];portConstraint=eastwest;fontSize=16;" parent="s3AQ3x3ffBdiTEU-oynQ-436" vertex="1">
          <mxGeometry y="155" width="21" height="31" as="geometry" />
        </mxCell>
        <mxCell id="s3AQ3x3ffBdiTEU-oynQ-448" style="shape=partialRectangle;html=1;whiteSpace=wrap;connectable=0;strokeColor=inherit;overflow=hidden;fillColor=none;top=0;left=0;bottom=0;right=0;pointerEvents=1;fontSize=12;" parent="s3AQ3x3ffBdiTEU-oynQ-447" vertex="1">
          <mxGeometry width="21" height="31" as="geometry">
            <mxRectangle width="21" height="31" as="alternateBounds" />
          </mxGeometry>
        </mxCell>
        <mxCell id="s3AQ3x3ffBdiTEU-oynQ-449" value="" style="shape=table;startSize=0;container=1;collapsible=0;childLayout=tableLayout;fontSize=9;" parent="1" vertex="1">
          <mxGeometry x="509.5" y="335" width="21" height="186" as="geometry" />
        </mxCell>
        <mxCell id="s3AQ3x3ffBdiTEU-oynQ-450" value="" style="shape=tableRow;horizontal=0;startSize=0;swimlaneHead=0;swimlaneBody=0;strokeColor=inherit;top=0;left=0;bottom=0;right=0;collapsible=0;dropTarget=0;fillColor=none;points=[[0,0.5],[1,0.5]];portConstraint=eastwest;fontSize=16;" parent="s3AQ3x3ffBdiTEU-oynQ-449" vertex="1">
          <mxGeometry width="21" height="31" as="geometry" />
        </mxCell>
        <mxCell id="s3AQ3x3ffBdiTEU-oynQ-451" value="A" style="shape=partialRectangle;html=1;whiteSpace=wrap;connectable=0;strokeColor=inherit;overflow=hidden;fillColor=none;top=0;left=0;bottom=0;right=0;pointerEvents=1;fontSize=12;" parent="s3AQ3x3ffBdiTEU-oynQ-450" vertex="1">
          <mxGeometry width="21" height="31" as="geometry">
            <mxRectangle width="21" height="31" as="alternateBounds" />
          </mxGeometry>
        </mxCell>
        <mxCell id="s3AQ3x3ffBdiTEU-oynQ-452" style="shape=tableRow;horizontal=0;startSize=0;swimlaneHead=0;swimlaneBody=0;strokeColor=inherit;top=0;left=0;bottom=0;right=0;collapsible=0;dropTarget=0;fillColor=none;points=[[0,0.5],[1,0.5]];portConstraint=eastwest;fontSize=16;" parent="s3AQ3x3ffBdiTEU-oynQ-449" vertex="1">
          <mxGeometry y="31" width="21" height="31" as="geometry" />
        </mxCell>
        <mxCell id="s3AQ3x3ffBdiTEU-oynQ-453" value="C" style="shape=partialRectangle;html=1;whiteSpace=wrap;connectable=0;strokeColor=inherit;overflow=hidden;fillColor=none;top=0;left=0;bottom=0;right=0;pointerEvents=1;fontSize=12;" parent="s3AQ3x3ffBdiTEU-oynQ-452" vertex="1">
          <mxGeometry width="21" height="31" as="geometry">
            <mxRectangle width="21" height="31" as="alternateBounds" />
          </mxGeometry>
        </mxCell>
        <mxCell id="s3AQ3x3ffBdiTEU-oynQ-454" style="shape=tableRow;horizontal=0;startSize=0;swimlaneHead=0;swimlaneBody=0;strokeColor=inherit;top=0;left=0;bottom=0;right=0;collapsible=0;dropTarget=0;fillColor=none;points=[[0,0.5],[1,0.5]];portConstraint=eastwest;fontSize=16;" parent="s3AQ3x3ffBdiTEU-oynQ-449" vertex="1">
          <mxGeometry y="62" width="21" height="31" as="geometry" />
        </mxCell>
        <mxCell id="s3AQ3x3ffBdiTEU-oynQ-455" value="E" style="shape=partialRectangle;html=1;whiteSpace=wrap;connectable=0;strokeColor=inherit;overflow=hidden;fillColor=none;top=0;left=0;bottom=0;right=0;pointerEvents=1;fontSize=12;" parent="s3AQ3x3ffBdiTEU-oynQ-454" vertex="1">
          <mxGeometry width="21" height="31" as="geometry">
            <mxRectangle width="21" height="31" as="alternateBounds" />
          </mxGeometry>
        </mxCell>
        <mxCell id="s3AQ3x3ffBdiTEU-oynQ-456" style="shape=tableRow;horizontal=0;startSize=0;swimlaneHead=0;swimlaneBody=0;strokeColor=inherit;top=0;left=0;bottom=0;right=0;collapsible=0;dropTarget=0;fillColor=none;points=[[0,0.5],[1,0.5]];portConstraint=eastwest;fontSize=16;" parent="s3AQ3x3ffBdiTEU-oynQ-449" vertex="1">
          <mxGeometry y="93" width="21" height="31" as="geometry" />
        </mxCell>
        <mxCell id="s3AQ3x3ffBdiTEU-oynQ-457" value="F" style="shape=partialRectangle;html=1;whiteSpace=wrap;connectable=0;strokeColor=inherit;overflow=hidden;fillColor=none;top=0;left=0;bottom=0;right=0;pointerEvents=1;fontSize=12;" parent="s3AQ3x3ffBdiTEU-oynQ-456" vertex="1">
          <mxGeometry width="21" height="31" as="geometry">
            <mxRectangle width="21" height="31" as="alternateBounds" />
          </mxGeometry>
        </mxCell>
        <mxCell id="s3AQ3x3ffBdiTEU-oynQ-458" style="shape=tableRow;horizontal=0;startSize=0;swimlaneHead=0;swimlaneBody=0;strokeColor=inherit;top=0;left=0;bottom=0;right=0;collapsible=0;dropTarget=0;fillColor=none;points=[[0,0.5],[1,0.5]];portConstraint=eastwest;fontSize=16;" parent="s3AQ3x3ffBdiTEU-oynQ-449" vertex="1">
          <mxGeometry y="124" width="21" height="31" as="geometry" />
        </mxCell>
        <mxCell id="s3AQ3x3ffBdiTEU-oynQ-459" value="G2" style="shape=partialRectangle;html=1;whiteSpace=wrap;connectable=0;strokeColor=inherit;overflow=hidden;fillColor=none;top=0;left=0;bottom=0;right=0;pointerEvents=1;fontSize=12;" parent="s3AQ3x3ffBdiTEU-oynQ-458" vertex="1">
          <mxGeometry width="21" height="31" as="geometry">
            <mxRectangle width="21" height="31" as="alternateBounds" />
          </mxGeometry>
        </mxCell>
        <mxCell id="s3AQ3x3ffBdiTEU-oynQ-460" style="shape=tableRow;horizontal=0;startSize=0;swimlaneHead=0;swimlaneBody=0;strokeColor=inherit;top=0;left=0;bottom=0;right=0;collapsible=0;dropTarget=0;fillColor=none;points=[[0,0.5],[1,0.5]];portConstraint=eastwest;fontSize=16;" parent="s3AQ3x3ffBdiTEU-oynQ-449" vertex="1">
          <mxGeometry y="155" width="21" height="31" as="geometry" />
        </mxCell>
        <mxCell id="s3AQ3x3ffBdiTEU-oynQ-461" style="shape=partialRectangle;html=1;whiteSpace=wrap;connectable=0;strokeColor=inherit;overflow=hidden;fillColor=none;top=0;left=0;bottom=0;right=0;pointerEvents=1;fontSize=12;" parent="s3AQ3x3ffBdiTEU-oynQ-460" vertex="1">
          <mxGeometry width="21" height="31" as="geometry">
            <mxRectangle width="21" height="31" as="alternateBounds" />
          </mxGeometry>
        </mxCell>
        <mxCell id="s3AQ3x3ffBdiTEU-oynQ-462" value="" style="shape=table;startSize=0;container=1;collapsible=0;childLayout=tableLayout;fontSize=9;" parent="1" vertex="1">
          <mxGeometry x="549.5" y="335" width="21" height="186" as="geometry" />
        </mxCell>
        <mxCell id="s3AQ3x3ffBdiTEU-oynQ-463" value="" style="shape=tableRow;horizontal=0;startSize=0;swimlaneHead=0;swimlaneBody=0;strokeColor=inherit;top=0;left=0;bottom=0;right=0;collapsible=0;dropTarget=0;fillColor=none;points=[[0,0.5],[1,0.5]];portConstraint=eastwest;fontSize=16;" parent="s3AQ3x3ffBdiTEU-oynQ-462" vertex="1">
          <mxGeometry width="21" height="31" as="geometry" />
        </mxCell>
        <mxCell id="s3AQ3x3ffBdiTEU-oynQ-464" value="A" style="shape=partialRectangle;html=1;whiteSpace=wrap;connectable=0;strokeColor=inherit;overflow=hidden;fillColor=none;top=0;left=0;bottom=0;right=0;pointerEvents=1;fontSize=12;" parent="s3AQ3x3ffBdiTEU-oynQ-463" vertex="1">
          <mxGeometry width="21" height="31" as="geometry">
            <mxRectangle width="21" height="31" as="alternateBounds" />
          </mxGeometry>
        </mxCell>
        <mxCell id="s3AQ3x3ffBdiTEU-oynQ-465" style="shape=tableRow;horizontal=0;startSize=0;swimlaneHead=0;swimlaneBody=0;strokeColor=inherit;top=0;left=0;bottom=0;right=0;collapsible=0;dropTarget=0;fillColor=none;points=[[0,0.5],[1,0.5]];portConstraint=eastwest;fontSize=16;" parent="s3AQ3x3ffBdiTEU-oynQ-462" vertex="1">
          <mxGeometry y="31" width="21" height="31" as="geometry" />
        </mxCell>
        <mxCell id="s3AQ3x3ffBdiTEU-oynQ-466" value="C" style="shape=partialRectangle;html=1;whiteSpace=wrap;connectable=0;strokeColor=inherit;overflow=hidden;fillColor=none;top=0;left=0;bottom=0;right=0;pointerEvents=1;fontSize=12;" parent="s3AQ3x3ffBdiTEU-oynQ-465" vertex="1">
          <mxGeometry width="21" height="31" as="geometry">
            <mxRectangle width="21" height="31" as="alternateBounds" />
          </mxGeometry>
        </mxCell>
        <mxCell id="s3AQ3x3ffBdiTEU-oynQ-467" style="shape=tableRow;horizontal=0;startSize=0;swimlaneHead=0;swimlaneBody=0;strokeColor=inherit;top=0;left=0;bottom=0;right=0;collapsible=0;dropTarget=0;fillColor=none;points=[[0,0.5],[1,0.5]];portConstraint=eastwest;fontSize=16;" parent="s3AQ3x3ffBdiTEU-oynQ-462" vertex="1">
          <mxGeometry y="62" width="21" height="31" as="geometry" />
        </mxCell>
        <mxCell id="s3AQ3x3ffBdiTEU-oynQ-468" value="E" style="shape=partialRectangle;html=1;whiteSpace=wrap;connectable=0;strokeColor=inherit;overflow=hidden;fillColor=none;top=0;left=0;bottom=0;right=0;pointerEvents=1;fontSize=12;" parent="s3AQ3x3ffBdiTEU-oynQ-467" vertex="1">
          <mxGeometry width="21" height="31" as="geometry">
            <mxRectangle width="21" height="31" as="alternateBounds" />
          </mxGeometry>
        </mxCell>
        <mxCell id="s3AQ3x3ffBdiTEU-oynQ-469" style="shape=tableRow;horizontal=0;startSize=0;swimlaneHead=0;swimlaneBody=0;strokeColor=inherit;top=0;left=0;bottom=0;right=0;collapsible=0;dropTarget=0;fillColor=none;points=[[0,0.5],[1,0.5]];portConstraint=eastwest;fontSize=16;" parent="s3AQ3x3ffBdiTEU-oynQ-462" vertex="1">
          <mxGeometry y="93" width="21" height="31" as="geometry" />
        </mxCell>
        <mxCell id="s3AQ3x3ffBdiTEU-oynQ-470" value="F" style="shape=partialRectangle;html=1;whiteSpace=wrap;connectable=0;strokeColor=inherit;overflow=hidden;fillColor=none;top=0;left=0;bottom=0;right=0;pointerEvents=1;fontSize=12;" parent="s3AQ3x3ffBdiTEU-oynQ-469" vertex="1">
          <mxGeometry width="21" height="31" as="geometry">
            <mxRectangle width="21" height="31" as="alternateBounds" />
          </mxGeometry>
        </mxCell>
        <mxCell id="s3AQ3x3ffBdiTEU-oynQ-471" style="shape=tableRow;horizontal=0;startSize=0;swimlaneHead=0;swimlaneBody=0;strokeColor=inherit;top=0;left=0;bottom=0;right=0;collapsible=0;dropTarget=0;fillColor=none;points=[[0,0.5],[1,0.5]];portConstraint=eastwest;fontSize=16;" parent="s3AQ3x3ffBdiTEU-oynQ-462" vertex="1">
          <mxGeometry y="124" width="21" height="31" as="geometry" />
        </mxCell>
        <mxCell id="s3AQ3x3ffBdiTEU-oynQ-472" value="G2" style="shape=partialRectangle;html=1;whiteSpace=wrap;connectable=0;strokeColor=inherit;overflow=hidden;fillColor=none;top=0;left=0;bottom=0;right=0;pointerEvents=1;fontSize=12;" parent="s3AQ3x3ffBdiTEU-oynQ-471" vertex="1">
          <mxGeometry width="21" height="31" as="geometry">
            <mxRectangle width="21" height="31" as="alternateBounds" />
          </mxGeometry>
        </mxCell>
        <mxCell id="s3AQ3x3ffBdiTEU-oynQ-473" style="shape=tableRow;horizontal=0;startSize=0;swimlaneHead=0;swimlaneBody=0;strokeColor=inherit;top=0;left=0;bottom=0;right=0;collapsible=0;dropTarget=0;fillColor=none;points=[[0,0.5],[1,0.5]];portConstraint=eastwest;fontSize=16;" parent="s3AQ3x3ffBdiTEU-oynQ-462" vertex="1">
          <mxGeometry y="155" width="21" height="31" as="geometry" />
        </mxCell>
        <mxCell id="s3AQ3x3ffBdiTEU-oynQ-474" value="B" style="shape=partialRectangle;html=1;whiteSpace=wrap;connectable=0;strokeColor=inherit;overflow=hidden;fillColor=none;top=0;left=0;bottom=0;right=0;pointerEvents=1;fontSize=12;" parent="s3AQ3x3ffBdiTEU-oynQ-473" vertex="1">
          <mxGeometry width="21" height="31" as="geometry">
            <mxRectangle width="21" height="31" as="alternateBounds" />
          </mxGeometry>
        </mxCell>
      </root>
    </mxGraphModel>
  </diagram>
</mxfile>
